<svg viewBox="0 0 180 68" width="180" height="68" 
    xmlns="http://www.w3.org/2000/svg">
    <g fill-rule="nonzero" fill="none">
        <path d="M89.942 0C40.01 0 0 14.971 0 33.721c0 18.635 40.356 33.721 89.942 33.721 49.587 0 89.943-15.144 89.943-33.72C179.885 15.143 139.529 0 89.942 0" fill="#999"/>
        <path d="M142.788 24.058c.116-.202 0-.346-.26-.346H138c-.346 0-.52.028-.663.346-.52 1.01-6.866 10.529-8.049 12.375-.201.288-.432.23-.461-.087-.115-1.096-1.067-2.365-2.567-2.971-1.125-.462-2.25-.548-3.404-.404-2.077.289-3.952 1.385-5.596 2.625-2.481 1.875-4.587 4.298-7.356 6.116-1.5.98-3.548 1.817-4.933.548-1.24-1.154-1.096-3.722.808-5.712.202-.202.433-.029.404.144-.173.895.057 1.789.72 2.395.837.75 2.02.836 3.03.346 1.211-.606 1.904-1.731 2.105-3.058.318-2.02-1.24-3.808-3.173-3.952-1.586-.115-3.086.433-4.586 1.673-.75.606-1.154 1.067-1.817 1.99-.145.231-.404.26-.375-.086.086-2.596-1.01-4.038-3.145-4.096-1.644-.029-3.432.865-4.817 1.961-1.529 1.212-2.827 2.827-4.27 4.356-.172.173-.317.173-.374-.173-.058-1.702-.462-3.375-1.27-4.558-.288-.403-.865-.605-1.355-.346-.231.116-1.039.49-1.616.952-.288.23-.403.577-.288 1.01.779 2.567.606 5.48-.433 7.932-.952 2.25-2.798 4.299-4.99 4.962-1.442.462-2.942.23-3.866-1.038-1.269-1.76-.75-4.818 1.125-7.356 1.674-2.221 4.097-3.664 6.49-4.558.29-.115.347-.288.26-.52-.115-.403-.346-.922-.432-1.182-.231-.577-.837-.692-1.587-.606-1.76.202-3.317.808-4.875 1.645-4.067 2.192-6.115 6.403-7.038 8.682-.433 1.096-.808 1.76-1.27 2.366-.634.807-1.442 1.557-2.942 2.827a.508.508 0 00-.115.605c.144.318.923 1.385 1.125 1.5.23.116.52-.057.634-.115 1.039-.692 2.28-1.817 2.885-2.567.202-.26.433-.145.548.23.577 2.02 2.048 3.664 4.096 4.356 3.75 1.27 7.645-.577 10.558-3.75 1.875-2.019 2.538-3.317 3.26-4.211 1.211-1.5 3.605-4.846 6.432-7.01 1.039-.808 2.28-1.413 2.885-1.01.49.318.663 1.068-.144 2.539-2.885 5.279-7.154 11.51-7.933 13.01-.144.26-.029.461.26.461h4.384c.231 0 .346-.115.462-.288 2.22-3.49 4.327-6.808 6.548-10.212.115-.202.23-.058.23.029.058.808.231 1.875.722 2.596.836 1.327 2.048 1.875 3.375 1.904 1.067 0 1.586-.144 2.74-.577a10.103 10.103 0 002.25-1.212c.346-.23.404.145.375.202-.52 2.77.116 6.03 2.856 7.414 3.288 1.615 6.894-.664 8.971-2.712.202-.202.433-.173.433.26.057.779.404 1.73 1.038 2.365 1.731 1.76 5.25 1.068 8.77-1.673 2.25-1.76 4.644-4.211 6.778-6.836.087-.087.145-.26 0-.433-.317-.346-.807-.721-1.125-1.038-.144-.116-.346-.087-.49 0-2.192 2.076-4.183 4.47-7.01 6.432-.952.664-2.51 1.212-3.173.289-.26-.346-.23-.866.03-1.53.864-1.99 14.047-22.038 14.74-23.22m-17.424 16.817c.03.144.231.288.433.375.058.029.115.087.029.23-.548 1.212-1.067 1.905-1.789 2.943-.634.952-1.384 1.702-2.25 2.452-1.326 1.096-3.173 2.279-4.701 1.5-.664-.346-.981-1.298-.952-2.077.028-2.163.98-4.385 2.769-6.548 2.163-2.654 4.558-4.038 6.115-3.288 1.616.778 1.096 2.653.375 4.125a.341.341 0 00-.029.288" fill="#FFF"/>
        <path d="M47.221 52.298c-4.904.029-9.23-3-9.75-8.25-.288-2.913.548-5.51 2.192-7.644 1.472-1.904 3.924-3.49 6.03-3.866.692-.115 1.586-.057 1.96.404.607.693.434 1.443-.172 1.76-1.587.808-3.52 2.221-4.471 4.125-.78 1.558-.923 3.433.26 5.221 1.96 2.971 7.47 3.058 12.576-1.702a41.925 41.925 0 003.548-3.606c2.25-2.567 3-3.519 6-7.673.03-.057.058-.115.03-.144-.03-.058-.059-.058-.145-.058-1.99.058-3.75.635-5.423 1.904-.49.346-1.183.318-1.5-.173-.346-.52-.087-1.211.461-1.615 2.712-1.904 5.712-2.25 8.74-2.74 0 0 .203 0 .376-.231 1.24-1.587 2.192-3.058 3.519-4.673 1.327-1.645 3.058-3.145 4.385-4.299 1.846-1.586 3.028-2.134 4.24-2.769.317-.173-.029-.375-.144-.375-6.721-1.269-13.702-2.884-20.366-.432-4.615 1.73-6.634 5.394-5.682 7.846.692 1.73 2.97 2.019 5.105.98 1.76-.865 3.404-2.278 4.587-4.067.663-1.01 2.02-.288 1.298 1.471-1.962 4.587-5.683 8.221-10.212 8.366-3.865.115-6.346-2.712-6.346-6.231.03-6.923 7.731-11.48 15.808-12.144 9.75-.808 18.98 1.788 28.673 2.97 7.414.895 14.539.924 21.98-.807.895-.202 1.5.375 1.443 1.27-.086 1.297-1.067 2.538-3.52 3.865-2.797 1.529-5.71 1.99-8.768 2.019-7.385.058-14.25-2.827-21.375-4.356 0 .318.086.693-.173.866-3.923 2.913-7.5 5.855-9.895 10.01-.086.086-.028.172.116.172 2.077-.115 3.923-.173 5.856-.317.346-.029.346-.115.317-.346-.173-1.414.23-3.058 1.5-4.183 1.298-1.154 2.884-1.298 3.952-.461 1.211.952 1.096 2.653.432 3.923-.663 1.298-1.788 1.99-2.855 2.307 0 0-.231.058-.202.26.057.317 1.5 1.125 1.615 1.356.116.202.058.519-.173.75-.144.173-.404.346-.692.346-.26 0-.404-.087-.721-.26-.664-.346-1.472-.952-2.02-1.615-.202-.23-.288-.23-.75-.202-2.105.115-5.365.433-7.557.721-.548.058-.606.173-.721.346-3.52 5.798-7.299 12.087-11.424 16.27-4.355 4.5-8.019 5.682-11.942 5.711m33.577-25.817c.058.288.173.346.317.317.664-.144 1.414-.692 1.847-1.327.403-.577.576-1.413.201-1.76-.346-.288-.923-.23-1.355.145-.866.779-1.125 1.817-1.01 2.625" fill="#FFF"/>
        <path d="M89.942 64.529C42.346 64.529 3.75 50.74 3.75 33.75c0-16.99 38.596-30.779 86.192-30.779s86.193 13.789 86.193 30.779c0 16.99-38.597 30.779-86.193 30.779m0-59.02C44.02 5.51 6.78 18.203 6.78 33.722c0 15.52 37.24 28.212 83.163 28.212 45.923 0 83.164-12.693 83.164-28.212 0-15.52-37.24-28.211-83.164-28.211" fill="#FFF"/>
    </g>
</svg>