<svg viewBox="0 0 160 51" width="160" height="51" 
    xmlns="http://www.w3.org/2000/svg">
    <g fill="#999" fill-rule="nonzero">
        <path d="M133.005 14.634c2.385 0 5.08 2.045 5.09 4.864 0 1.592-.51 2.806-1.26 3.92-.49.728-.864 1.545-1 2.147-.16.681-.523 2.307 1.5 2.34 1.306.025 4.523-1.102 7.125-4.204 2-2.488 3.192-5.659 3.192-9.1C147.652 6.534 141.106 0 133.029 0c-8.08 0-14.625 6.532-14.625 14.6 0 3.442 1.193 6.613 3.193 9.1 2.602 3.116 5.817 4.23 7.123 4.205 2.013-.033 1.66-1.659 1.5-2.34-.148-.59-.511-1.42-1.01-2.147-.752-1.114-1.263-2.34-1.263-3.92-.022-2.82 2.672-4.864 5.058-4.864zM158.854 29.393c-.592-.488-1.659-1.216-3.808-1.532-2.987-.445-5.668.25-7.282.884-2.114.83-4.715 2.706-6.522 5.171-1.899 2.589-2.886 6.51-1.943 10.59.272 1.158.556 1.795.975 2.6.581 1.102 2.045 2.627 3.354 2.899 1.033.216 1.83-.375 2.216-.82 2.612-2.998 12.52-14.622 13.6-16.11 1.08-1.466.386-2.874-.59-3.682zM118.233 28.745c-1.613-.633-4.285-1.33-7.272-.884-2.147.328-3.204 1.044-3.806 1.532-.966.808-1.66 2.216-.603 3.682 1.08 1.49 10.988 13.101 13.6 16.11.386.444 1.181 1.034 2.216.82 1.307-.272 2.773-1.795 3.354-2.9.42-.804.704-1.44.976-2.599.942-4.08-.045-8.001-1.944-10.59-1.805-2.465-4.42-4.353-6.521-5.17zM75.216 23.928h11.635l-5.022 6.544h13.565a1168.9 1168.9 0 004.944-6.454c1.532-1.989 1.886-3.773 1.886-5.352v-2.262c0-1.147-.704-1.773-1.773-1.773H75.216c-1.033 0-1.739.568-1.739 1.74v5.816c.013 1.173.706 1.741 1.74 1.741zM.26 46.528c-.32.535-.32 1.091-.137 1.455.215.432.715.67 1.263.67h8.26a2.984 2.984 0 002.5-1.386l9.112-14.453H8.886C4.633 39.586.35 46.368.259 46.528zM34.232 32.836H22.655c.283 1.602 2.432 13.52 2.556 14.215.194 1.079.864 1.626 1.864 1.626h7.964c.728 0 1.103-.229 1.434-.648.238-.285.33-.728.227-1.365l-2.468-13.828zM69.864 16.373c0-1.17-.694-1.739-1.739-1.739h-7.042c-1.047 0-1.74.568-1.74 1.74v13.19l-6.68-11.861c-1.319-2.18-3.568-3-6.17-3.067H41.3c-1.034 0-1.74.568-1.74 1.739v14.1h8.727l1.33 2.365H39.55v14.1c0 1.169.704 1.739 1.737 1.739h7.044c1.034 0 1.74-.568 1.74-1.74V33.655l6.737 11.942c1.318 2.18 3.567 3.013 6.17 3.069h5.146c1.045 0 1.739-.567 1.739-1.74V32.839h-8.668l-1.341-2.365h10.009v-14.1h.001zM31.278 16.282c-.193-1.113-.942-1.648-1.921-1.648h-3.455c-3.6 0-6.76 1.887-8.532 4.728 0 0-3.294 5.227-6.987 11.1h23.43l-2.535-14.18zM100.805 39.369H88.577l5.012-6.533H80.024c-2.478 3.216-4.694 6.112-4.83 6.283-1.808 2.5-1.978 5.033-1.978 6.773v.987c0 1.148.704 1.772 1.771 1.772h25.816c1.034 0 1.738-.568 1.738-1.739v-5.817c-.01-1.157-.704-1.726-1.736-1.726z"/>
    </g>
</svg>