<svg viewBox="0 0 200 65" width="200" height="65" xmlns="http://www.w3.org/2000/svg"><g fill="none" fill-rule="evenodd"><path d="M15.272 15.68c-.093-.159-2.487-5.252-1.588-7.377 1.29-1.53 3.337-3.243 6.906-1.12 1.128.617 1.61.776 1.61.776l-.367 2.145.966.935.943-.958.297-.754-.231-1.414s2.07-.87 2.715-1.164c1.75-.48 4.994-.66 5.5 1.554.208 2.396.162 3.95-.046 4.316-.209.367-1.406 2.856-1.406 2.856l-2.047.684s-1.68-1.85-1.75-1.874c-.07-.023-2.047.8-2.024.707.023-.092-1.842-1.233-1.842-1.233l-1.518 1.187s-2.279-.846-2.418-.777c-.138.07-1.564 1.917-1.564 1.917l-2.136-.406z" fill="#CCC"/><path d="M16.998 19.715c1.868-1.176 3.866-1.771 5.943-1.771 2.08 0 4.084.598 5.956 1.781a.401.401 0 10.43-.678c-2-1.265-4.15-1.906-6.386-1.906-2.23 0-4.372.638-6.37 1.897a.399.399 0 00-.126.552.404.404 0 00.553.125zM22.65 32.473V29.08c-.251-.056-.47-.116-.658-.165a6.446 6.446 0 01-.215-.06 6.371 6.371 0 01-1.204-.446v2.634c.261.241.586.44.963.668.33.198.668.403.998.667.04.03.076.067.116.096zM20.573 36.225v8.144a5.2 5.2 0 01.612.393c.533.38 1.019.79 1.465 1.196v-4.263c0-.017.004-.033.004-.053 0-.185.069-.327.25-.384a1.37 1.37 0 01.348-.043c.175-.006.35-.003.523-.003.476.003.952-.013 1.425-.06.06-.006.132-.003.192-.02-.017-.049-.063-.102-.093-.145l-.099-.145a14.707 14.707 0 00-.202-.278c-.135-.178-.274-.35-.42-.522l-.07-.08c-.647.017-1.276-.032-1.58-.052a.31.31 0 01-.281-.304c.003-.192.003-.456.003-.747v-.569a16.14 16.14 0 01-2.077-2.065zM20.57 49.27v.311c0 .103 0 .205-.003.308 0 .102-.004.204-.007.307a9.362 9.362 0 01-.013.304c-.007.1-.013.202-.023.3-.01.1-.024.2-.037.298-.016.1-.033.199-.053.298-.02.099-.046.195-.072.294a3.574 3.574 0 01-.218.578 4.654 4.654 0 01-.15.285c-.033.056-.069.112-.105.168-.037.056-.076.11-.116.165a.519.519 0 00-.096.275.441.441 0 00.086.27c.126.166.33.176.522.186.318.016.632.056.943.109a10.235 10.235 0 011.776.46c.126.042.248.105.38.128a.514.514 0 00.39-.089.557.557 0 00.196-.264c.02-.06.03-.123.026-.185a.895.895 0 00-.129-.387 4.058 4.058 0 00-.096-.159l-.109-.158-.119-.166a5.675 5.675 0 01-.125-.172c-.043-.063-.087-.122-.13-.188a4.165 4.165 0 01-.36-.688 4.185 4.185 0 01-.1-.284 2.787 2.787 0 01-.079-.317 6.721 6.721 0 01-.06-.357 5.505 5.505 0 01-.039-.631v-.126a39.63 39.63 0 01-1.974-1.193l-.106-.066v.076c.003 0 0 .142 0 .155v.155zM16.968 43.83c.102-.016.205-.036.304-.05.218-.03.433-.046.645-.052v-1.48c-.169.105-.536.343-.95.634v.948zM18.555 48.755a1.368 1.368 0 01-.33-.317c-.225-.324-.295-.76-.311-1.075a9.76 9.76 0 00-.953-.386v.41c-.016.31-.089.733-.307 1.047-.113.162-.285.291-.437.413-.3.242-.704.483-.704.92 0 .214.102.422.27.558.206.162.46.175.709.122.277-.06.542-.125.826-.135.232-.01.463.006.692.05.218.039.43.122.654.115a.716.716 0 00.705-.707c0-.311-.215-.51-.433-.698a8.798 8.798 0 00-.38-.317z" fill="#999"/><path d="M12.957 28.52c.023.096.053.192.092.282.308.71 1.254 1.269 1.939.684a.92.92 0 00.327-.694.923.923 0 00-.923-.922.912.912 0 00-.82.512c-.198-.261-.185-.7-.139-.916.136-.628.599-1.067.999-1.335.91-.611 1.733-.562 2.338-.502 1.002.099 1.84.611 2.653 1.166.41.281.827.552 1.256.8.503.291 1.115.47 1.674.615 1.065.28 2.16.364 3.258.307.595-.03 1.63-.247 1.481.01-.665 1.177-2.093 2.228-3.231 3.378-.149.139-.291.274-.43.407v.852c.308.301.592.609.857.923l.01.01c1.915-2.503 3.39-4.836 5.986-7.054a.278.278 0 00-.241-.483c-1.036.242-2.352.566-3.477.46-3.998-.29-7.22-4.164-11.635-1.9-1.127.578-2.05 1.755-2.017 3.064.003.115.02.228.043.337zM30.016 49.277c.125-.28.307-1.107.115-1.752l-.01-.033c-.01-.026-.016-.056-.03-.079a1.19 1.19 0 10-.671 1.567c.03.066.01.307-.046.426-.11.235-.337.436-.777.598-3.218 1.187-4.538-2.23-7.878-4.617-.476-.357-1.61-1.071-3.34-.833-1.158.159-2.59.684-3.202.522a.19.19 0 01-.126-.264 5.466 5.466 0 01.788-1.177 8.015 8.015 0 011.025-.978c.185-.152.374-.298.569-.443.192-.145.39-.284.585-.423.195-.139.394-.274.592-.413.215-.152.43-.301.642-.456.294-.215.582-.437.86-.675.182-.155.353-.317.519-.486l.006-.006c.053-.05.103-.106.156-.156V35.99l-.209.228c-1.759 1.871-3.591 4.733-5.007 6.753a33.304 33.304 0 01-1.776 2.32.45.45 0 00-.106.255v.01a.462.462 0 00.576.489c5.58-1.402 8.926 4.802 14.218 4.746.952-.007 2.077-.5 2.527-1.514zM29.493 32.057c.268-.265.727-.433.727-.873a.557.557 0 00-.35-.522.808.808 0 00-.295-.06l-.45.037a6.161 6.161 0 01-.955.003l-.235-.016a.201.201 0 00-.169.072l-.426.536c-.159.205-.03.423.139.581.129.12.277.212.406.331.341.324.238.916.242 1.349.003.512.003 1.024.003 1.537v.05c0 .627 0 2.009-.003 3.347.215-.112.456-.251.681-.446.13-.112.252-.225.364-.344l-.007-4.878c.004-.281.12-.496.328-.704z" fill="#999"/><path d="M27.569 41.312c-1.654-2.856-2.596-6.006-5.52-8.326-1.277-1.011-3.013-1.246-2.897-3.933.013-.308-.503-.047-1.267-.06-.665-.013-.953-.115-1.62-.086a.776.776 0 00-.222.05.42.42 0 00-.215.499c.043.159.155.28.284.37.152.106.308.208.45.327.106.086.218.172.298.285.096.135.119.3.119.462l-.007 7.278c.311-.423.629-.836.946-1.23v-.085c.003-.172.003-.443 0-.774v-.046c-.013-1.57-.092-4.422.281-4.402.672.04 1.538 3.252 5.044 6.134 1.419 1.17 3.079 2.793 3.995 5.583.265.803.377 1.8.582 2.564.04.15.205.222.347.156a2.05 2.05 0 01.854-.185c.06 0 .119.006.178.013 0-.38-.003-.757-.006-1.137l-.014-2.148c0-.202-.003-.807-.003-1.623a.11.11 0 00-.159-.1c-.208.103-.9.36-.9.357l.004.295c-.013.003-.026.003-.036.006a.499.499 0 01-.516-.244z" fill="#999"/><path d="M34.226 31.095c0-3.067-.847-5.324-1.61-6.438-2.574-3.762-6.926-4.046-11.755-3.709-.777.053-1.971.32-2.004.737-.06.724 1.743.645 1.716 1.673-.006.27 0 .519 0 .81.721.244 1.416.548 2.08.84.03-1.224 1.033-2.483 2.094-2.863 1.402-.506 3.397-.298 4.587.522 1.439.992 2.094 3.42 2.134 5.268.096 4.053.82 7.907-2.226 10.527a4.372 4.372 0 01-.916.589c-.146.073-.291.142-.434.208a9.722 9.722 0 01-.453.172c.179.354.364.707.553 1.054.026.043.046.083.07.126.512-.175.81-.34.932-.417 3.373-1.695 5.232-4.623 5.232-9.099z" fill="#999"/><path d="M19.145 64.428l1.465.535c-.01-.003.132-.317.139-.333.085-.182.198-.364.294-.52.155-.244.33-.475.52-.693.184-.215.403-.404.591-.612l.05-.053.07.02c.413.126 1.054.126 1.458 0l.07-.023.049.053c.178.195.38.37.555.568.202.232.39.476.56.734.098.156.211.337.297.522.053.106.096.218.139.33.182-.075.37-.135.552-.2.268-.1.536-.196.804-.295a.884.884 0 01.109-.04 5.003 5.003 0 00-.962-1.147 6.483 6.483 0 00-1.376-.974l.082-.11c.162-.218.245-.469.245-.746 0-.724-.575-1.313-1.28-1.313h-1.144c-.708 0-1.28.589-1.28 1.313 0 .267.083.528.241.753l.076.11a6.377 6.377 0 00-1.362.968c-.364.337-.721.72-.962 1.153z" fill="#999" fill-rule="nonzero"/><path d="M21.109 60.333c.192-.238.443-.423.73-.532l-.085-.159-.027-.046c-.175-.334-.248-.704-.195-.968.073-.347.258-.437.55-.476.284-.037 1.56-.037 1.845 0 .29.04.476.129.549.476.056.26-.02.634-.195.968l-.027.046c-.026.05-.056.106-.086.159.288.11.54.294.73.532.444-.327 1.27-1.054 1.254-1.92-.01-.506-.33-.9-.856-1.048a3.917 3.917 0 00-1.297-.07c-.41.053-1.587.053-1.997 0a3.827 3.827 0 00-1.297.07c-.526.149-.846.542-.856 1.048-.01.866.817 1.596 1.26 1.92z" fill="#999" fill-rule="nonzero"/><path d="M20.855 62.15a1.769 1.769 0 01-.15-.703c0-.179.034-.35.083-.512-.836-.133-1.66-.34-2.457-.628a14.874 14.874 0 01-2.907-1.418c.423-.265.999-1.108 1.455-2.188.595-1.415.754-2.694.36-2.863-.396-.165-1.197.846-1.792 2.258-.417.988-.618 1.91-.569 2.432-.413-.28-.813-.575-1.2-.889-.09-.072-.169-.152-.255-.224.433-.219 1.062-1.015 1.58-2.063.672-1.348.91-2.591.533-2.78-.377-.188-1.227.754-1.898 2.102-.456.916-.711 1.785-.711 2.308-.403-.37-.797-.75-1.17-1.154.442-.208 1.1-.935 1.676-1.9.76-1.28 1.088-2.49.73-2.7-.356-.212-1.266.65-2.027 1.93-.486.816-.793 1.602-.86 2.121a22.91 22.91 0 01-1.09-1.361c.449-.169 1.147-.784 1.792-1.627.88-1.143 1.333-2.27 1.012-2.515-.321-.244-1.293.483-2.17 1.626-.549.714-.93 1.418-1.061 1.907-.311-.456-.606-.922-.887-1.398.427-.072 1.184-.674 1.895-1.537.883-1.07 1.353-2.141 1.052-2.39-.3-.247-1.257.424-2.14 1.495-.595.724-1.002 1.447-1.111 1.917a24.607 24.607 0 01-.79-1.56c.426-.056 1.197-.579 1.94-1.349.944-.978 1.483-1.983 1.211-2.247-.274-.265-1.26.314-2.199 1.292-.608.635-1.052 1.28-1.21 1.725-.05-.115-.106-.228-.156-.34-.162-.377-.31-.757-.456-1.14.42-.033 1.2-.523 1.968-1.266.962-.932 1.527-1.904 1.266-2.172-.261-.267-1.25.268-2.212 1.2-.609.588-1.059 1.193-1.24 1.63a35.068 35.068 0 01-.447-1.375c.446-.08 1.18-.503 1.918-1.137 1.019-.876 1.644-1.818 1.4-2.103-.246-.284-1.27.195-2.286 1.071-.566.49-1.012.998-1.254 1.402-.132-.49-.248-.985-.357-1.481.417-.017 1.188-.403 1.971-1.018 1.016-.8 1.657-1.68 1.432-1.963-.225-.285-1.227.135-2.242.935-.595.47-1.062.965-1.3 1.352a35.04 35.04 0 01-.221-1.29c.426-.029 1.207-.445 1.987-1.096 1.016-.847 1.647-1.765 1.413-2.05-.239-.284-1.254.172-2.273 1.022-.555.462-.992.945-1.24 1.335a31.13 31.13 0 01-.155-1.57c.446-.053 1.207-.446 1.974-1.048 1.052-.826 1.717-1.735 1.485-2.03-.231-.293-1.273.14-2.325.966-.512.403-.93.823-1.2 1.183a30.52 30.52 0 01-.03-1.824c.423.023 1.224-.268 2.03-.767 1.042-.648 1.7-1.395 1.472-1.672-.228-.278-1.253.02-2.295.667-.51.317-.926.658-1.194.959.02-.559.053-1.117.103-1.673.41.013 1.14-.224 1.911-.648 1.062-.585 1.793-1.302 1.627-1.6-.165-.297-1.157-.062-2.222.523-.506.28-.936.588-1.23.87a29.98 29.98 0 01.234-1.713c.387.04 1.098-.139 1.856-.49 1.048-.485 1.786-1.116 1.65-1.407-.135-.291-1.095-.136-2.143.347a5.777 5.777 0 00-1.21.73c.132-.68.28-1.358.456-2.029.344.08 1.025-.02 1.77-.28 1.002-.355 1.736-.867 1.637-1.148-.1-.28-.993-.221-1.995.13-.493.17-.92.386-1.217.587.037-.128.07-.26.11-.393.132-.44.277-.876.433-1.309.274.132.942.106 1.696-.086.943-.241 1.65-.65 1.584-.915-.066-.265-.886-.281-1.829-.04-.516.132-.952.314-1.24.496.232-.612.483-1.216.76-1.808.239.145.828.205 1.512.129.873-.096 1.558-.374 1.528-.615-.026-.245-.754-.364-1.627-.268-.49.053-.916.166-1.194.298.278-.565.576-1.12.893-1.666.195.159.711.28 1.33.297.787.02 1.428-.142 1.435-.36.007-.221-.628-.416-1.415-.436-.464-.013-.874.04-1.138.129.317-.522.655-1.035 1.012-1.534.142.155.618.284 1.194.314.698.033 1.266-.099 1.276-.294.01-.195-.549-.38-1.243-.41-.41-.02-.774.02-1.009.093.149-.205.298-.41.453-.608.288-.027.827-.377 1.35-.91.651-.664 1.028-1.348.843-1.53-.185-.181-.863.209-1.518.873-.53.539-.873 1.087-.886 1.375-.162.192-.311.387-.467.585.043-.241.04-.588-.02-.975-.105-.688-.35-1.223-.542-1.193-.192.03-.261.611-.155 1.299.095.608.294 1.094.472 1.18-.34.45-.67.905-.979 1.378a4.043 4.043 0 00-.254-.929c-.291-.73-.691-1.26-.896-1.177-.205.083-.136.74.155 1.471.212.539.486.962.698 1.12a25.463 25.463 0 00-.913 1.597 4.317 4.317 0 00-.433-1.018c-.43-.763-.953-1.286-1.168-1.163-.215.119-.036.836.394 1.6.31.551.668.971.926 1.12a28.104 28.104 0 00-.757 1.672c-.126-.3-.341-.667-.629-1.038-.592-.77-1.247-1.262-1.465-1.097-.215.165.09.926.681 1.696.41.532.847.925 1.151 1.067-.185.473-.357.949-.519 1.431-.056.172-.102.344-.155.516-.16-.33-.447-.74-.82-1.15-.718-.784-1.479-1.256-1.697-1.054-.219.201.185.998.903 1.781.526.575 1.075.978 1.415 1.074a30.966 30.966 0 00-.49 1.983c-.204-.344-.562-.763-1.015-1.17-.856-.773-1.73-1.203-1.944-.965-.215.241.304 1.061 1.16 1.835.636.571 1.274.951 1.65 1.017a31.775 31.775 0 00-.307 2.013c-.261-.34-.69-.747-1.217-1.13-1.009-.73-1.994-1.094-2.2-.81-.204.281.447 1.104 1.46 1.835.734.532 1.451.866 1.868.899-.06.601-.1 1.206-.126 1.81-.284-.36-.784-.799-1.399-1.199C1.755 33.85.7 33.518.498 33.825c-.201.308.526 1.14 1.627 1.861.857.562 1.687.886 2.107.856-.013.599-.013 1.2.003 1.798 0 .037.004.07.007.106-.327-.354-.893-.773-1.577-1.14-1.211-.655-2.342-.91-2.524-.569-.182.34.652 1.144 1.862 1.798.953.513 1.852.78 2.282.708.033.565.08 1.13.142 1.695-.39-.29-1.042-.601-1.812-.84-1.326-.406-2.494-.436-2.606-.062-.113.37.87 1.001 2.192 1.408.986.3 1.882.393 2.326.27.062.467.135.93.218 1.39-.414-.255-1.145-.497-1.994-.636-1.36-.218-2.51-.089-2.574.291-.062.38.993.866 2.349 1.084 1.025.166 1.931.133 2.341-.06.01.044.017.09.023.133.1.486.212.972.338 1.454-.424-.24-1.217-.442-2.14-.512-1.393-.106-2.543.122-2.573.51-.03.386 1.075.792 2.464.898 1.098.086 2.044-.04 2.41-.287.136.489.288.975.45 1.457-.482-.158-1.263-.241-2.14-.191-1.441.076-2.589.466-2.57.869.02.403 1.208.667 2.647.591 1.032-.056 1.908-.27 2.321-.535.14.377.288.75.444 1.12.046.11.092.215.139.324-.487-.135-1.313-.155-2.233-.023-1.429.205-2.54.694-2.48 1.094.056.4 1.26.555 2.688.35 1.065-.151 1.955-.465 2.312-.78.238.513.49 1.018.76 1.518-.498-.1-1.342-.047-2.271.171-1.419.334-2.494.926-2.401 1.326.092.396 1.32.446 2.738.112 1.072-.251 1.948-.654 2.272-1.005.321.552.662 1.091 1.026 1.617-.444-.15-1.403-.063-2.461.258-1.383.416-2.408 1.064-2.292 1.45.116.387 1.33.364 2.712-.052 1.217-.367 2.156-.916 2.285-1.303.404.569.837 1.12 1.293 1.65-.492-.096-1.425.05-2.44.413-1.403.502-2.425 1.226-2.286 1.616.14.393 1.39.304 2.792-.198 1.213-.433 2.143-1.035 2.278-1.441.404.443.83.869 1.27 1.279-.535.05-1.359.334-2.222.803-1.346.734-2.272 1.636-2.067 2.013.205.377 1.465.086 2.811-.648 1.032-.562 1.816-1.223 2.034-1.67l.274.239c.348.284.708.558 1.079.816-.53.08-1.356.45-2.206 1.021-1.274.86-2.11 1.841-1.869 2.198.242.357 1.465-.05 2.739-.909 1.031-.694 1.776-1.474 1.891-1.933a16.122 16.122 0 003.288 1.653c.645.234 1.306.42 1.98.561a80.89 80.89 0 00-1.871.35l-.374.074a.241.241 0 00-.195.264l.027.245a.242.242 0 00.284.211c.096-.02.225-.043.397-.076a84.781 84.781 0 012.192-.403c.14-.132.275-.228.42-.324z" fill="gray" fill-rule="nonzero"/><path d="M43.275 42.442c-.85.135-1.581.38-1.994.635.082-.463.155-.926.218-1.389.443.123 1.34.03 2.325-.27 1.326-.407 2.308-1.039 2.193-1.409-.113-.37-1.28-.34-2.607.063-.77.235-1.422.545-1.812.84.063-.566.11-1.13.142-1.696.434.073 1.33-.192 2.282-.707 1.21-.655 2.044-1.458 1.862-1.798-.181-.34-1.313-.083-2.523.568-.685.37-1.25.787-1.578 1.14 0-.036.004-.069.007-.105.02-.599.017-1.197.003-1.798.42.03 1.247-.294 2.107-.856 1.101-.72 1.829-1.55 1.627-1.861-.202-.308-1.257.026-2.358.743-.615.404-1.114.84-1.399 1.2a33.052 33.052 0 00-.126-1.811c.417-.036 1.135-.367 1.869-.899 1.009-.73 1.66-1.55 1.459-1.834-.206-.281-1.188.079-2.2.81-.529.383-.959.79-1.217 1.13a31.847 31.847 0 00-.307-2.013c.38-.066 1.018-.446 1.65-1.018.856-.773 1.379-1.593 1.16-1.834-.214-.242-1.087.191-1.944.965-.453.41-.81.83-1.015 1.17a28.86 28.86 0 00-.49-1.984c.34-.095.89-.502 1.416-1.074.717-.783 1.12-1.58.903-1.781-.219-.202-.98.27-1.697 1.054-.374.41-.661.82-.82 1.15-.053-.171-.1-.343-.156-.515a27.408 27.408 0 00-.519-1.431c.304-.143.741-.533 1.151-1.068.592-.77.896-1.53.681-1.695-.215-.166-.87.323-1.465 1.097-.284.37-.503.737-.628 1.038a28.155 28.155 0 00-.758-1.673c.255-.148.616-.568.927-1.12.43-.764.608-1.48.393-1.6-.215-.119-.737.4-1.167 1.163a4.46 4.46 0 00-.434 1.018 26.236 26.236 0 00-.912-1.596c.211-.155.482-.582.697-1.12.291-.73.36-1.392.156-1.471-.205-.083-.605.446-.896 1.177-.136.343-.222.67-.255.928a23.656 23.656 0 00-.979-1.378c.178-.083.38-.569.473-1.18.106-.688.036-1.27-.155-1.299-.192-.03-.437.503-.543 1.193-.06.387-.063.734-.02.975-.155-.195-.304-.393-.466-.585-.013-.287-.354-.836-.886-1.375-.652-.664-1.33-1.054-1.518-.872-.186.181.191.869.843 1.53.522.532 1.058.883 1.35.909.155.198.303.403.452.608-.235-.073-.598-.112-1.008-.092-.698.033-1.254.218-1.244.41.01.194.582.327 1.277.294.575-.027 1.051-.16 1.194-.314.353.499.694 1.008 1.012 1.533-.262-.089-.672-.142-1.138-.129-.787.02-1.419.215-1.416.437.007.221.649.38 1.436.36.615-.017 1.134-.139 1.33-.298.317.546.614 1.101.892 1.666-.278-.129-.704-.241-1.194-.297-.873-.096-1.6.023-1.627.267-.026.245.658.52 1.528.615.685.076 1.277.017 1.511-.129.275.595.526 1.197.761 1.808-.288-.181-.727-.363-1.24-.495-.943-.242-1.76-.225-1.829.04-.07.264.642.673 1.584.915.754.195 1.422.218 1.697.086.155.433.297.869.433 1.308.04.13.07.262.11.394-.295-.205-.725-.417-1.218-.588-1.002-.354-1.895-.41-1.994-.13-.1.282.635.794 1.637 1.148.744.26 1.425.36 1.77.28.175.671.327 1.349.456 2.03a5.922 5.922 0 00-1.21-.73c-1.05-.486-2.008-.642-2.144-.348-.135.294.602.926 1.65 1.408.758.35 1.469.53 1.856.49.096.568.172 1.14.235 1.712a6.303 6.303 0 00-1.23-.87c-1.066-.585-2.058-.82-2.223-.522-.165.297.566 1.015 1.627 1.6.77.423 1.502.66 1.912.648.046.555.082 1.113.102 1.672-.268-.297-.684-.641-1.194-.959-1.041-.647-2.067-.945-2.295-.667-.228.277.43 1.028 1.472 1.672.807.503 1.607.794 2.03.767.004.608 0 1.216-.03 1.825-.27-.36-.687-.784-1.2-1.184-1.051-.826-2.09-1.259-2.325-.965-.231.294.433 1.203 1.485 2.03.767.604 1.528.994 1.975 1.047-.04.526-.093 1.048-.156 1.57-.248-.39-.684-.872-1.24-1.335-1.015-.846-2.034-1.306-2.272-1.021-.238.284.393 1.203 1.412 2.049.78.651 1.561 1.068 1.988 1.097-.066.433-.14.863-.222 1.29-.238-.387-.704-.883-1.3-1.353-1.015-.8-2.017-1.216-2.242-.935-.225.284.417 1.164 1.432 1.963.784.615 1.554 1.002 1.971 1.018-.109.496-.225.992-.357 1.481-.241-.403-.685-.912-1.253-1.401-1.02-.876-2.041-1.359-2.286-1.071-.245.284.38 1.226 1.4 2.102.737.634 1.47 1.054 1.917 1.137-.138.463-.287.922-.446 1.375-.182-.433-.632-1.038-1.24-1.63-.963-.932-1.952-1.467-2.213-1.2-.261.268.308 1.24 1.267 2.172.764.74 1.548 1.23 1.968 1.266-.146.383-.295.764-.457 1.14-.05.116-.106.228-.155.34-.162-.445-.602-1.09-1.21-1.725-.943-.978-1.929-1.556-2.2-1.292-.274.264.268 1.27 1.21 2.248.745.773 1.515 1.295 1.942 1.348-.248.529-.51 1.051-.79 1.56-.11-.47-.517-1.19-1.112-1.917-.883-1.07-1.839-1.742-2.14-1.494-.3.248.172 1.316 1.052 2.39.711.866 1.472 1.467 1.895 1.537-.281.476-.575.942-.886 1.398-.133-.49-.516-1.197-1.062-1.907-.88-1.144-1.852-1.87-2.17-1.626-.32.244.133 1.371 1.013 2.515.648.843 1.342 1.457 1.792 1.626-.344.47-.71.922-1.091 1.362-.066-.52-.374-1.306-.86-2.122-.76-1.28-1.67-2.142-2.028-1.93-.357.211-.03 1.42.731 2.7.576.965 1.234 1.695 1.677 1.9-.373.404-.767.784-1.17 1.154 0-.522-.255-1.388-.712-2.307-.671-1.349-1.521-2.287-1.898-2.102-.377.188-.139 1.431.532 2.78.523 1.047 1.151 1.844 1.581 2.062-.086.073-.168.152-.254.225-.387.314-.79.608-1.2.889.049-.522-.153-1.445-.57-2.433-.595-1.415-1.395-2.426-1.792-2.257-.397.165-.235 1.447.36 2.862.453 1.08 1.032 1.924 1.455 2.188a15.162 15.162 0 01-2.907 1.418c-.8.288-1.623.492-2.457.628a1.677 1.677 0 01-.066 1.213c.149.096.288.192.423.29.807.136 1.627.295 2.183.404.169.033.298.056.397.076a.242.242 0 00.284-.212l.027-.244a.24.24 0 00-.195-.264l-.374-.073c-.486-.093-1.168-.225-1.872-.35a14.694 14.694 0 001.981-.562 16.12 16.12 0 003.288-1.653c.115.46.863 1.236 1.891 1.934 1.274.859 2.497 1.265 2.739.909.241-.357-.596-1.34-1.869-2.198-.85-.572-1.677-.942-2.206-1.022.37-.26.728-.532 1.078-.816.093-.076.182-.159.275-.238.218.446.999 1.107 2.034 1.669 1.346.734 2.606 1.025 2.811.648.205-.377-.721-1.276-2.067-2.013-.86-.47-1.684-.757-2.223-.803.44-.41.867-.836 1.27-1.28.136.407 1.065 1.009 2.28 1.442 1.401.502 2.652.588 2.79.198.14-.393-.883-1.117-2.285-1.616-1.015-.364-1.948-.51-2.44-.413.46-.53.889-1.081 1.293-1.65.125.39 1.065.939 2.285 1.303 1.382.416 2.596.44 2.712.052.116-.386-.91-1.037-2.292-1.45-1.059-.318-2.014-.407-2.46-.258.363-.526.707-1.065 1.024-1.616.325.35 1.198.753 2.273 1.004 1.418.334 2.645.284 2.738-.112.093-.397-.982-.988-2.401-1.325-.926-.219-1.77-.271-2.272-.172.271-.496.522-1.005.76-1.517.358.314 1.247.628 2.312.78 1.429.205 2.633.05 2.69-.35.055-.4-1.056-.89-2.481-1.095-.92-.132-1.743-.112-2.233.023.047-.109.096-.215.14-.324.158-.37.303-.743.442-1.12.41.264 1.29.48 2.322.535 1.442.076 2.626-.188 2.646-.591.02-.404-1.128-.794-2.57-.87-.876-.046-1.657.034-2.14.192.162-.482.314-.968.45-1.457.367.248 1.313.37 2.411.287 1.392-.106 2.494-.509 2.464-.899-.03-.39-1.18-.618-2.573-.509-.923.073-1.716.271-2.14.512.123-.482.235-.965.338-1.454.01-.043.016-.09.023-.132.41.192 1.316.225 2.341.06 1.36-.219 2.411-.704 2.352-1.085-.06-.34-1.21-.472-2.57-.254z" fill="#999" fill-rule="nonzero"/><path d="M32.748 10.983a.301.301 0 01-.235-.29c0-.166.132-.298.298-.298a.591.591 0 00.562-.588.59.59 0 00-.589-.589c-.023 0-.202.033-.3-.092a.324.324 0 01-.057-.14.299.299 0 01.222-.343.588.588 0 00.44-.565.59.59 0 00-.59-.588.536.536 0 00-.264.069c-.026.013-.05.03-.073.043a.25.25 0 01-.221.023.307.307 0 01-.179-.245.313.313 0 01.03-.188.497.497 0 01.132-.165.533.533 0 00.15-.189.55.55 0 00.055-.24.59.59 0 00-.955-.46.483.483 0 00-.126.145.462.462 0 01-.13.159.294.294 0 01-.35-.023c-.082-.073-.135-.222-.076-.328a.59.59 0 00-.516-.873.597.597 0 00-.575.47c-.017.09-.013.166-.076.238a.29.29 0 01-.5-.115c-.016-.067-.016-.133-.023-.199-.033-.28-.3-.492-.575-.492a.607.607 0 00-.344.109c-.013.01-.027.02-.037.03a.663.663 0 00-.185.27.525.525 0 00-.013.239c.017.155-.033.314-.192.366a.292.292 0 01-.367-.185.593.593 0 00-.979-.267.587.587 0 00-.165.545c.02.083.063.152.056.238a.302.302 0 01-.136.235.305.305 0 01-.215.043.286.286 0 01-.155-.083c-.053-.053-.086-.122-.139-.175a.586.586 0 10-.767.882 4.71 4.71 0 01-.232.073.396.396 0 01-.486-.294c-.073-.314-.145-.608-.202-.86a.753.753 0 01.007-.353.831.831 0 01.073-.185c.01-.02.073-.116.168-.215a1.31 1.31 0 00-.228-1.98.845.845 0 01-.374-.704v-.578h.255c.506.01.95.195 1.207.591V.952c-.264.406-.724.595-1.253.595h-.209v-.304c0-.522.189-.979.596-1.243h-1.912c.397.258.582.7.592 1.206v.34h-.221c-.523 0-.98-.188-1.247-.594v1.91c.258-.396.7-.581 1.207-.591h.261v.565a.854.854 0 01-.377.707 1.314 1.314 0 00-.178 2.05.721.721 0 01.188.693c-.06.248-.129.546-.202.86a.394.394 0 01-.486.294 4.78 4.78 0 01-.231-.073.579.579 0 00.234-.466.586.586 0 00-1.002-.416c-.056.053-.086.122-.139.175a.292.292 0 01-.37.04.292.292 0 01-.136-.235c-.003-.086.04-.155.057-.238a.585.585 0 00-.576-.71c-.271 0-.5.184-.569.432a.291.291 0 01-.367.185.293.293 0 01-.195-.257c-.003-.063.007-.126.01-.189a.542.542 0 00-.205-.426l-.036-.03a.583.583 0 00-.344-.109c-.278 0-.546.212-.576.493-.007.066-.007.135-.023.198a.29.29 0 01-.5.116c-.062-.073-.059-.153-.076-.238a.593.593 0 00-.575-.47.59.59 0 00-.516.873c.06.106.007.254-.076.327a.284.284 0 01-.35.023.464.464 0 01-.13-.159.48.48 0 00-.125-.145.59.59 0 00-.956.46c0 .082.02.165.056.24a.53.53 0 00.149.188c.053.047.103.1.136.166.026.06.036.126.026.189a.307.307 0 01-.178.244.25.25 0 01-.222-.023l-.073-.043a.528.528 0 00-.264-.07.59.59 0 00-.59.59c0 .274.19.502.44.564a.3.3 0 01.222.344.325.325 0 01-.056.139c-.1.126-.278.092-.3.092a.59.59 0 00-.59.589c0 .317.252.572.563.588a.298.298 0 01.063.588.592.592 0 00-.48.579.59.59 0 00.589.588c.026 0 .228-.013.294.027.07.04.122.105.142.188.037.139 0 .281-.155.347a.586.586 0 10.403 1.1.287.287 0 01.374.166c.05.129 0 .271-.112.347a.588.588 0 00.241 1.124.68.68 0 00.198-.037.516.516 0 01.589.777.955.955 0 00.245 1.316.96.96 0 00.536.168h.05c.032 0 .065.013.089.037.026.026.04.069.03.105a.133.133 0 01-.034.06c-.023.026-.056.04-.086.06a.35.35 0 00-.142.217.35.35 0 00.043.258c.003.003.003.007.007.01a.364.364 0 00.5.11c2.023-1.3 4.196-1.957 6.458-1.957h.043c2.259 0 4.432.657 6.46 1.956a.365.365 0 00.5-.11c.002-.002.002-.006.005-.009a.353.353 0 00.043-.258.365.365 0 00-.142-.218c-.03-.02-.063-.036-.086-.06a.116.116 0 01-.003-.165.113.113 0 01.09-.04s.032.004.049.004a.92.92 0 00.535-.168.935.935 0 00.394-.612.932.932 0 00-.149-.704.516.516 0 01.589-.777.7.7 0 00.198.037.588.588 0 00.241-1.124.29.29 0 01.261-.512.59.59 0 00.797-.549.583.583 0 00-.392-.552c-.156-.066-.192-.208-.156-.347a.307.307 0 01.142-.188c.066-.037.268-.027.295-.027a.59.59 0 00.109-1.17zM22.23 4.633a.717.717 0 111.433 0 .717.717 0 01-1.433 0zm.717 2.086l.735 3.097a3.102 3.102 0 00-.735.74 3.037 3.037 0 00-.734-.74c.142-.588.493-2.075.734-3.097zm-7.845 7.731c-1.002-1.827-1.418-3.523-1.22-5.05.103-.793.374-1.425.83-1.93a2.976 2.976 0 011.525-.873c1.071-.248 2.285-.086 3.42.453.191.09.37.195.558.307.272.159.553.324.87.443.229.086.477.146.731.195-.258 1.088-.483 2.02-.483 2.02l-.07.304.02.01c.553.162.98.667 1.191 1.193.03.07.053.145.07.221.02.076.036.152.05.228a1.866 1.866 0 00-1.763-1.265c-.678 0-1.267.366-1.594.908.02-.205.023-.413.003-.624a3.189 3.189 0 00-1.822-2.555 3.168 3.168 0 00-.454 1.993c.067.621.311 1.176.672 1.633a1.862 1.862 0 00-.8-.185 1.87 1.87 0 00-1.733 2.574zm1.734 1.17c-.718 0-1.333-.41-1.647-1.001a15.51 15.51 0 013.37-1.59 1.87 1.87 0 01-1.723 2.591zm2.9.797l-1.214-.661.662-1.213 1.213.66-.661 1.214zm-.74-3.523a13.864 13.864 0 013.68-.569c.013.086.027.169.027.255a1.87 1.87 0 01-1.869 1.867 1.86 1.86 0 01-1.839-1.553zm3.951 3.083a.872.872 0 110-1.745.872.872 0 110 1.745zm.248-3.397c0-.09.014-.172.027-.255 1.263.027 2.494.218 3.68.569a1.866 1.866 0 01-3.707-.314zm2.914 3.837l-.665-1.213 1.214-.661.665 1.213-1.214.66zm2.954-.797a1.87 1.87 0 01-1.724-2.59c1.171.383 2.299.918 3.37 1.589a1.87 1.87 0 01-1.646 1.001zm1.73-1.17c.088-.214.138-.452.138-.7a1.87 1.87 0 00-1.868-1.868c-.288 0-.556.07-.8.185.36-.456.604-1.011.67-1.633a3.168 3.168 0 00-.453-1.993 3.189 3.189 0 00-1.822 2.555 3.03 3.03 0 00.003.625 1.862 1.862 0 00-1.594-.909 1.87 1.87 0 00-1.763 1.266c.01-.08.03-.155.05-.228.017-.076.04-.152.07-.222.211-.528.638-1.03 1.19-1.193l.02-.01-.07-.304-.482-2.02c.254-.049.502-.108.73-.194.318-.12.6-.284.87-.443.189-.112.368-.215.56-.307 1.134-.542 2.348-.701 3.42-.453.598.139 1.14.45 1.524.872.456.506.727 1.134.83 1.93.195 1.524-.222 3.22-1.224 5.044z" fill="#999"/><path d="M61.17 12.388a1.686 1.686 0 00-1.875 1.097 1.756 1.756 0 00-.08.294l-6.83 48.012h1.813l6.552-46.058a1.68 1.68 0 001.799-1.388 1.696 1.696 0 00-1.38-1.957zM76.096 32.279a.928.928 0 01.916-.797h3.565c1.667 0 3.671.384 3.767 2.215.047.882-.192 1.606-.707 2.148-.788.83-2.2 1.25-4.19 1.25h-4.042l.69-4.816zm5.043-6.614l-9.16.003c-.645 0-1.195.476-1.287 1.114l-3.357 23.646h6.175l.962-6.726c.063-.45.45-.78.903-.78h3.443c4.23 0 7.686-1.187 9.73-3.339 1.558-1.64 2.278-3.758 2.146-6.3-.261-5.056-3.476-7.618-9.555-7.618zM100.48 33.452c1.353-1.425 3.215-2.208 5.236-2.208 3.797 0 5.642 2.776 5.787 5.526.116 2.225-.644 4.37-2.09 5.89-1.336 1.408-3.168 2.182-5.159 2.182-3.33 0-5.682-2.208-5.854-5.49-.119-2.271.618-4.363 2.08-5.9zm5.547-8.2c-3.979 0-7.445 1.438-10.028 4.154-2.626 2.764-4.137 6.763-3.946 10.431.341 6.472 5.23 10.994 11.89 10.994 4.061 0 7.716-1.491 10.289-4.201 2.543-2.678 3.827-6.376 3.615-10.422-.344-6.554-5.097-10.956-11.82-10.956zM137.069 44.607h-11.523l2.501-17.56a1.213 1.213 0 00-1.198-1.382h-3.72c-.609 0-1.122.446-1.208 1.048l-3.366 23.711h19.089l.625-4.442a1.21 1.21 0 00-1.2-1.375zM144.976 25.665c-.602 0-1.112.443-1.198 1.038l-3.37 23.721h6.178l3.321-23.38a1.21 1.21 0 00-1.198-1.379h-3.733zM165.262 31.244c1.905 0 3.417.5 4.664 1.56.129.11.251.225.37.344a1.217 1.217 0 001.64.089c.807-.668 1.75-1.45 2.441-2.02a1.362 1.362 0 00.232-1.864 10.607 10.607 0 00-.288-.36c-2.1-2.515-5.057-3.741-8.989-3.741-4.263 0-8.034 1.5-10.62 4.22-2.467 2.595-3.714 6.132-3.512 9.956.44 8.415 7.206 11.403 12.865 11.403 3.364 0 6.221-.926 8.318-2.651a9.868 9.868 0 001.657-1.769 1.228 1.228 0 00-.109-1.61l-2.279-2.273c-.483-.483-1.257-.46-1.736.023a7.186 7.186 0 01-1.293 1.051c-1.294.807-2.861 1.236-4.591 1.236-3.697 0-6.304-2.356-6.489-5.866-.109-2.09.572-4.02 1.922-5.438 1.412-1.477 3.469-2.29 5.797-2.29zM197.294 25.665h-16.699c-.605 0-1.118.446-1.204 1.044l-3.367 23.719h19.153l.638-4.433a1.213 1.213 0 00-1.2-1.385h-11.596l.44-3.123a.91.91 0 01.903-.783h11.152a1.21 1.21 0 001.197-1.035l.463-3.236a1.205 1.205 0 00-1.193-1.378h-11.579s-.004 0-.004-.003l.391-2.78a.908.908 0 01.899-.783h11.143c.601 0 1.111-.443 1.193-1.038l.477-3.391a1.217 1.217 0 00-1.207-1.395zM70.473 61.784l-3.247-5.017-.705 5.017h-.81l.916-6.435h.662l3.24 5.037.702-5.037h.81l-.916 6.435zM77.114 61.417c-.238 1.636-1.078 2.287-2.338 2.287-.893 0-1.647-.496-1.829-1.176l.648-.285c.189.413.6.727 1.237.727.903 0 1.34-.469 1.542-1.553l.043-.231c-.249.34-.701.68-1.466.68-1.223 0-1.904-.855-1.96-1.903-.107-1.993 1.286-3.06 2.622-3.06.681 0 1.088.21 1.36.478l.052-.376h.738l-.649 4.412zm-.572-1.233l.311-1.996c-.182-.304-.618-.552-1.237-.552-.995 0-1.925.856-1.855 2.198.043.79.493 1.305 1.35 1.305.7 0 1.216-.495 1.431-.955zM82.409 61.077c-.195.304-.724.78-1.505.78-1.17 0-1.875-.8-1.931-1.914-.1-1.904 1.332-3.05 2.649-3.05.665 0 1.088.184 1.33.403L82.99 57h.708l-.688 4.78h-.701l.099-.704zm.083-.91l.34-2.085c-.198-.267-.575-.46-1.167-.46-1.022 0-1.988.893-1.918 2.235.046.856.582 1.27 1.31 1.27.737-.004 1.2-.536 1.435-.96zm-1.714-4.927h2.478l-.093.68h-2.477l.092-.68zM88.25 61.784l.916-6.435h2.507c1.528 0 2.338.654 2.391 1.682.063 1.177-.648 2.38-2.933 2.38h-1.704l-.337 2.37h-.84v.003zm1.647-5.652l-.367 2.499h1.657c1.316 0 2.054-.516 2.004-1.49-.03-.58-.476-1.012-1.528-1.012h-1.766v.003zM95.677 57.005h.747l-.635 4.779h-.747l.635-4.78zm.526-1.91a.5.5 0 01.493.459c.013.258-.189.443-.447.443-.268 0-.47-.185-.483-.443a.426.426 0 01.437-.46zM98.506 57.005h.744l-.06.433c.196-.34.655-.532 1.006-.532.433 0 .698.165.87.433l-.533.532c-.089-.146-.234-.238-.509-.238-.397 0-.794.33-.969.826l-.47 3.328h-.747l.668-4.782zM102.557 57.005h.747l-.635 4.78h-.747l.635-4.78zm.526-1.91a.5.5 0 01.493.459c.013.258-.189.443-.447.443-.268 0-.47-.185-.483-.443a.426.426 0 01.437-.46zM105.606 55.075h.747l-.337 2.528a2.317 2.317 0 011.657-.697c.949 0 1.528.525 1.577 1.444.014.248-.016.588-.056.863l-.39 2.574h-.738l.384-2.508c.027-.202.063-.404.043-.744-.033-.615-.38-.902-.969-.902-.708 0-1.349.433-1.65.991l-.414 3.163h-.747l.893-6.712zM111.443 57.005h.747l-.635 4.78h-.747l.635-4.78zm.525-1.91a.5.5 0 01.493.459c.013.258-.188.443-.446.443-.268 0-.47-.185-.483-.443a.428.428 0 01.436-.46zM120.194 61.784h-.747l.426-2.932c.02-.175.03-.33.017-.542-.02-.377-.265-.68-.781-.68-.681 0-1.084.366-1.382.872l-.447 3.282h-.747l.44-3.18c.079-.568-.179-.975-.751-.975-.728 0-1.224.552-1.432.965l-.45 3.19h-.747l.661-4.78h.748l-.086.615c.32-.396.846-.717 1.455-.717.635 0 1.091.268 1.273.744.407-.486.91-.744 1.581-.744.764 0 1.383.35 1.445 1.203.007.149 0 .32-.029.506l-.447 3.173zM125.506 61.077c-.195.304-.724.78-1.508.78-1.171 0-1.875-.8-1.932-1.914-.099-1.904 1.333-3.05 2.65-3.05.664 0 1.088.184 1.329.403l.04-.295h.708l-.688 4.78h-.702l.103-.704zm.079-.91l.341-2.085c-.198-.267-.575-.46-1.167-.46-1.022 0-1.988.893-1.919 2.235.047.856.582 1.27 1.31 1.27.741-.004 1.201-.536 1.435-.96zM128.645 57.005h.747l-.079.598a2.314 2.314 0 011.657-.697c.949 0 1.528.525 1.577 1.444a4.78 4.78 0 01-.056.862l-.4 2.575h-.738l.394-2.508c.017-.185.063-.404.043-.744-.033-.615-.38-.902-.969-.902-.708 0-1.349.433-1.65.991l-.414 3.163h-.747l.635-4.782zM137.588 61.077c-.196.304-.725.78-1.505.78-1.171 0-1.875-.8-1.932-1.914-.099-1.904 1.333-3.05 2.649-3.05.662 0 1.089.184 1.33.403l.04-.295h.707l-.687 4.78h-.702l.1-.704zm.079-.91l.341-2.085c-.199-.267-.576-.46-1.168-.46-1.022 0-1.987.893-1.918 2.235.046.856.582 1.27 1.31 1.27.74-.004 1.2-.536 1.435-.96zM145.086 56.896c1.27 0 2.1.856 2.156 1.956.096 1.828-1.151 3.015-2.643 3.015-1.299 0-2.179-.817-2.239-1.93-.096-1.848 1.244-3.041 2.726-3.041zm-.45 4.244c.965 0 1.898-.846 1.829-2.159-.047-.882-.672-1.361-1.446-1.361-.939 0-1.951.872-1.885 2.131.043.82.599 1.389 1.502 1.389zM153.863 55.332h.665l1.915 6.452h-.837l-.489-1.626h-3.132l-.91 1.626h-.949l3.737-6.452zm-1.462 4.089h2.504l-.843-2.916-1.661 2.916zM160.179 56.896c1.27 0 2.1.856 2.157 1.956.096 1.828-1.151 3.015-2.643 3.015-1.3 0-2.179-.817-2.239-1.93-.096-1.848 1.244-3.041 2.725-3.041zm-.45 4.244c.966 0 1.899-.846 1.829-2.159-.046-.882-.671-1.361-1.445-1.361-.939 0-1.951.872-1.885 2.131.043.82.599 1.389 1.501 1.389zM163.685 57.005h.883l.185-1.038h.728l-.175 1.038h1.547l-.099.737h-1.564l-.331 2.105c-.033.231-.073.562-.063.717.03.404.278.552.599.552.397 0 .661-.211.827-.396l.403.486c-.284.376-.813.644-1.376.644-.701 0-1.17-.387-1.213-1.001-.01-.185.016-.533.059-.8l.357-2.307h-.856l.089-.737zM171.884 60.938c-.437.661-1.277.929-1.998.929-1.197 0-2.05-.79-2.113-2.003-.089-1.692 1.197-2.968 2.689-2.968 1.005 0 1.614.423 1.657 1.223.049.955-.893 1.62-2.477 1.62-.341 0-.712-.027-1.102-.093l.007.139c.046.862.615 1.358 1.445 1.358.589 0 1.092-.238 1.422-.651l.47.446zm-3.241-1.92c.314.036.602.056.86.056 1.28 0 1.865-.443 1.842-.873-.017-.33-.318-.578-.923-.578-.804-.003-1.528.559-1.779 1.395zM176.755 61.077c-.195.303-.724.78-1.508.78-1.171 0-1.875-.8-1.932-1.914-.099-1.904 1.333-3.05 2.65-3.05.664 0 1.088.184 1.329.402l.04-.294h.708l-.688 4.78h-.702l.103-.704zm.079-.91l.341-2.085c-.198-.268-.575-.46-1.167-.46-1.022 0-1.988.893-1.919 2.235.047.856.582 1.269 1.31 1.269.741-.003 1.201-.535 1.435-.959zM180.116 57.005h.744l-.06.433c.195-.34.655-.532 1.002-.532.434 0 .698.165.87.433l-.532.532c-.09-.146-.235-.238-.51-.238-.396 0-.793.33-.969.826l-.469 3.328h-.748l.672-4.782zM186.066 56.896c1.27 0 2.1.856 2.156 1.956.096 1.828-1.151 3.015-2.643 3.015-1.299 0-2.179-.817-2.239-1.93-.092-1.848 1.244-3.041 2.726-3.041zm-.447 4.244c.966 0 1.899-.846 1.829-2.159-.046-.882-.671-1.361-1.445-1.361-.939 0-1.951.872-1.889 2.131.047.82.602 1.389 1.505 1.389zM192.964 61.077c-.196.304-.725.78-1.505.78-1.171 0-1.875-.8-1.932-1.914-.099-1.904 1.333-3.05 2.649-3.05.662 0 1.089.184 1.33.403l.04-.295h.707l-.687 4.78h-.702l.1-.704zm.079-.91l.341-2.085c-.199-.267-.576-.46-1.168-.46-1.022 0-1.988.893-1.918 2.235.046.856.582 1.27 1.31 1.27.74-.004 1.2-.536 1.435-.96zM77.3 20.734l-3.569-5.81-.81 5.81h-1.353l1.098-7.725a.75.75 0 01.741-.644c.258 0 .496.132.629.354l3.062 5.04c.096.155.334.11.36-.073l.675-4.743c.05-.35.37-.608.731-.571.38.036.632.413.579.79l-1.065 7.575H77.3v-.003zM86.844 12.365h4.253a.65.65 0 01.645.74l-.007.05a.669.669 0 01-.658.575h-3.519a.509.509 0 00-.503.436l-.24 1.67h3.452c.377 0 .711.3.694.677a.666.666 0 01-.664.638h-3.225a.509.509 0 00-.503.436l-.258 1.788h3.906c.397 0 .701.35.648.744l-.085.618h-6.033l1.062-7.47a1.047 1.047 0 011.035-.902zM131.943 12.365h4.253a.65.65 0 01.645.74l-.007.05a.668.668 0 01-.658.575h-3.519a.51.51 0 00-.503.436l-.241 1.67h3.453c.377 0 .711.3.694.677a.666.666 0 01-.665.638h-3.224a.508.508 0 00-.503.436l-.258 1.788h3.906c.397 0 .701.35.648.744l-.086.618h-6.032l1.061-7.47a1.047 1.047 0 011.036-.902zM104.71 20.734h-1.148l-1.118-5.824-2.712 5.824h-1.16l-1.181-7.592a.672.672 0 01.665-.777h.033c.327 0 .605.238.654.562l.712 4.71c.02.125.188.148.241.033l2.275-4.915a.676.676 0 01.612-.39h.242a.66.66 0 01.648.539l.883 4.72c.023.125.195.142.245.026l2.014-4.842a.697.697 0 01.549-.436.661.661 0 01.691.918l-3.145 7.444zM119.199 12.365h5.156c.407 0 .721.36.661.764a.68.68 0 01-.168.36l-5.305 5.883h3.327c.727 0 1.286.641 1.184 1.362h-6.836a3.27 3.27 0 01.807-1.7l4.785-5.307h-3.628a.673.673 0 01-.668-.77.699.699 0 01.685-.592zM156.564 12.365a.68.68 0 01.675.777l-.886 6.227h3.138a1.2 1.2 0 011.194 1.361h-5.9l1.095-7.773a.686.686 0 01.684-.592zM184.901 20.734l-3.568-5.81-.81 5.81h-1.353l1.098-7.725a.75.75 0 01.741-.644c.258 0 .496.132.628.354l3.092 5.086c.086.143.301.096.325-.066l.678-4.766c.043-.297.264-.552.562-.598.453-.07.82.31.757.744l-1.071 7.618h-1.079v-.003zM194.641 14.272l-.728 5.1h1.079c2.586 0 3.638-1.388 3.548-3.444-.063-1.421-.813-2.201-2.728-2.201h-.539a.643.643 0 00-.632.545zm-1.227-1.054a.992.992 0 01.982-.853h1.631c2.91 0 3.889 1.603 3.965 3.371.139 3.18-1.673 4.998-5.298 4.998h-2.348l1.068-7.516zM146.315 12.365a.782.782 0 00-.682.4l-4.451 7.972h1.544l1.009-1.854h3.555l.513 1.854h1.412l-2.163-7.81a.758.758 0 00-.737-.562zm-1.899 5.272l1.482-2.74c.073-.132.271-.113.311.036l.744 2.704h-2.537zM170.7 12.365a.781.781 0 00-.681.4l-4.452 7.972h1.545l1.009-1.854h3.555l.513 1.854h1.412l-2.163-7.81a.758.758 0 00-.738-.562zm-1.901 5.272l1.481-2.74c.073-.132.271-.113.311.036l.744 2.704h-2.536z" fill="#999" fill-rule="nonzero"/></g></svg>