<svg viewBox="0 0 190 58" width="190" height="58" xmlns="http://www.w3.org/2000/svg"><path d="M80.92 57.385c-.177-.392-.48-1.946-.674-3.454-.352-2.743-.352-2.743-3.613.364-2.508 2.389-3.405 2.987-3.885 2.589-.508-.422-.444-.84.345-2.261.533-.96 1.317-2.17 1.743-2.692.426-.522.085-.322-.76.444-2.063 1.874-1.958.98.138-1.167 1.671-1.712 1.671-1.712-1.94-2.844-2.659-.834-3.381-1.224-2.739-1.477.796-.313.8-.347.044-.377-.457-.018-.83-.264-.83-.545 0-.328.554-.395 1.541-.187 1.26.265 1.433.211.949-.295-.326-.34-.593-.79-.593-.998 0-.627 2.613-.428 4.447.338.945.395 1.718.636 1.718.535 0-.101-.454-1.21-1.009-2.464-.806-1.824-.898-2.457-.458-3.162.303-.485.424-1.087.27-1.337-.155-.25.158-.455.695-.455.537 0 .983.267.99.593.009.33.228.227.497-.234.44-.755.578-.763 1.597-.095.95.622 1.078 1.01.864 2.605-.156 1.164-.06 1.874.253 1.874.277 0 .572.428.655.95.136.851.377.753 2.286-.927 1.174-1.034 2.386-1.889 2.695-1.9.308-.01.696.407.862.928.165.522.713.949 1.217.949 1.508 0 1.06.79-1.665 2.941-1.42 1.121-2.594 2.175-2.608 2.343-.015.167.507.438 1.159.602.652.163 1.185.507 1.185.762 0 .256.694.494 1.542.528 1.54.062 1.54.062-.119.412-.913.192-1.34.384-.948.427 1.188.13 2.506 1.381 2.225 2.114-.228.593-.516.6-2.075.043-.996-.355-2.172-.655-2.614-.666-.73-.02-.715.177.163 2.163.756 1.709.84 2.303.389 2.727-.435.408-.63.402-.787-.023-.114-.312-.495-.456-.846-.322-.376.144-.794-.208-1.017-.856-.35-1.019-.4-.977-.673.558-.197 1.11-.401 1.424-.616.949zm3.48-8.063c-.392-.253-.926-.46-1.186-.46-.261 0-.154.207.237.46s.925.46 1.185.46c.261 0 .155-.207-.237-.46zm.035-2.692c1.15-1.27 1.15-1.27-.391-.205-1.556 1.075-1.868 1.475-1.15 1.475.215 0 .909-.572 1.541-1.27zm-5.227-6.105c-.41-1.374-.419-1.377-.459-.174-.022.674.102 1.367.275 1.541.551.551.615.076.184-1.367zM3.936 52.872a7.69 7.69 0 01-2.964-3.228C-.134 47.36-.326 43.877.549 41.958c1.599-3.509 7.97-3.346 7.97.204 0 1.81-1.26 2.797-3.795 2.978-1.918.136-2.148.28-2.28 1.428-.308 2.658 2.555 5.126 5.946 5.126 4.023 0 5.614-2.782 6.58-11.507.376-3.398.59-6.272.475-6.387-.116-.115-.448.235-.738.778-.755 1.41-3.923 2.888-6.193 2.888-5.696 0-8.942-5.809-7.706-13.791.67-4.325 2.27-6.82 5.208-8.12 2.594-1.148 5.747-.964 7.655.446 1.24.917 1.27.917 1.966.022.402-.517 1.539-1.02 2.638-1.166 2.642-.352 3.584.602 3.26 3.305-.131 1.096-.65 7.713-1.152 14.703-.804 11.2-1.041 12.967-1.998 14.881-2.779 5.565-9.65 8.003-14.449 5.126zm9.551-20.805c2.33-2.33 2.828-8.946.872-11.575-.725-.975-1.433-1.32-2.932-1.431-1.654-.122-2.201.078-3.347 1.223-2.93 2.93-3.153 8.915-.438 11.804 1.444 1.538 4.296 1.527 5.845-.021zm87.511 17.485c0-4.039 0-4.039 1.318-3.938.725.055 1.525-.024 1.778-.174.828-.493 2.599.51 3.065 1.735.918 2.417-1.364 5.056-3.434 3.972-.704-.37-.83-.216-.83 1.004 0 1.123-.208 1.44-.948 1.44-.875 0-.949-.317-.949-4.04zm4.268-.467c.471-.567.471-.855 0-1.423-1.185-1.428-2.874-.335-2.2 1.423.15.391.574.712.942.712.367 0 .934-.32 1.258-.712zm-9.332 2.273c-1.332-.252-2.233-1.349-1.874-2.283.252-.658.403-.655 1.452.033.644.422 1.555.693 2.024.603 1.344-.26.997-1.45-.569-1.952-3.209-1.031-3.938-2.912-1.786-4.605.948-.745 1.677-.944 2.712-.737 1.741.349 2.367.93 2.01 1.863-.227.589-.523.618-1.717.167-1.078-.407-1.58-.408-1.982-.005-.403.403.045.818 1.772 1.643 1.763.842 2.344 1.39 2.452 2.313.224 1.926-2.048 3.422-4.494 2.96zm12.583-.586c-.89-.73-1.014-1.084-.61-1.744.278-.455 1.238-1.104 2.134-1.442 1.628-.613 1.628-.613.009-.505-1.984.131-2.507-.886-.79-1.538 1.454-.553 3.33.031 3.768 1.173.166.433.302 1.626.302 2.653 0 1.748-.084 1.859-1.318 1.765-.725-.055-1.556.047-1.848.227-.291.18-1.032-.085-1.646-.589h-.001zm2.678-1.45c.16-.26-.027-.474-.419-.474-.39 0-.843.213-1.004.474-.161.261.027.475.418.475.391 0 .843-.214 1.005-.475zm28.295 1.835c-.61-.227-1.35-1.052-1.645-1.835-.467-1.235-.774-1.422-2.33-1.422-1.733 0-1.793.055-1.793 1.66 0 1.343-.181 1.66-.949 1.66-.878 0-.948-.317-.948-4.269 0-4.268 0-4.268 3.082-4.268 2.424 0 3.083.152 3.083.711 0 .527-.553.711-2.134.711-1.818 0-2.134.141-2.134.949 0 .79.316.948 1.897.948 1.428 0 1.897.19 1.897.764 0 .623.153.584.83-.21 1.89-2.219 5.335-1.07 5.335 1.778 0 2.094-2.187 3.568-4.191 2.823zm2.057-2.783c0-1.352-1.497-1.925-1.95-.747-.43 1.125.18 2.26 1.118 2.08.525-.102.832-.593.832-1.333zm4.057 2.762c-.822-.304-.975-.77-.975-2.984 0-2.308.115-2.624.949-2.624.808 0 .948.316.948 2.134 0 1.581.185 2.135.712 2.135.527 0 .711-.554.711-2.135 0-1.818.14-2.134.949-2.134.84 0 .948.316.948 2.794 0 2.794 0 2.794-1.633 2.984-.899.105-2.072.029-2.609-.17zm13.164.157c-1.009-.296-1.808-1.587-1.808-2.92 0-1.88 1.053-3 2.775-2.95 1.345.038 1.493-.096 1.493-1.35 0-1.074.216-1.39.949-1.39.877 0 .948.316.948 4.218 0 4.219 0 4.219-1.867 4.397-1.028.098-2.148.096-2.49-.006v.001zm2.223-2.92c0-.74-.306-1.23-.831-1.332-.939-.18-1.55.955-1.118 2.08.452 1.178 1.95.605 1.95-.747zm3.445 2.26c-1.123-1.123-.527-2.254 1.61-3.06 1.585-.597 1.585-.597-.075-.491-1.172.075-1.66-.093-1.66-.571 0-.957 2.295-1.463 3.631-.8.914.454 1.137.983 1.253 2.978.142 2.426.142 2.426-1.875 2.619-1.504.143-2.237-.028-2.884-.675zm2.958-1.31c0-.262-.308-.475-.684-.475-.376 0-.815.213-.976.474-.161.261.146.475.683.475s.977-.214.977-.475zm4.15 1.858c-.57-.33-.83-1.073-.83-2.356 0-1.03-.214-1.874-.475-1.874-.26 0-.474-.32-.474-.711 0-.392.213-.712.474-.712.26 0 .474-.442.474-.983 0-.685.252-.932.83-.813.478.098.771.516.69.984-.08.476.164.812.594.812.402 0 .732.32.732.712 0 .39-.32.711-.711.711-1.128 0-.918 2.406.237 2.708 1.132.296 1.251 1.343.198 1.747-.897.344-.726.366-1.74-.225zm7.344-.012c-1.537-.569-2.307-2.474-1.615-3.994.69-1.513 2.29-2.127 3.993-1.533 1.429.498 2.058 2.025 1.595 3.87-.34 1.357-2.43 2.228-3.973 1.657zm2.022-2.794c0-.741-.307-1.232-.832-1.333-.938-.181-1.549.955-1.117 2.079.452 1.179 1.949.605 1.949-.746zm-140.142.71c0-1.58-.184-2.133-.711-2.133a.713.713 0 01-.712-.712c0-.39.32-.711.712-.711.426 0 .711-.437.711-1.09 0-1.309.823-2.23 1.992-2.23 1.032 0 1.14 1.212.142 1.595-.391.15-.711.6-.711.999 0 .4.32.726.711.726.391 0 .711.32.711.711 0 .392-.32.712-.71.712-.528 0-.712.553-.712 2.134 0 1.58-.185 2.134-.712 2.134-.527 0-.711-.553-.711-2.134zm3.32-.655c0-2.79 0-2.79 1.897-2.815 2.03-.028 2.702 1.016.948 1.474-.753.197-.948.647-.948 2.19 0 1.625-.155 1.941-.949 1.941-.84 0-.948-.316-.948-2.79zm4.893 2.22c-1.433-1.847-.845-4.454 1.116-4.947 2.866-.719 5.018 1.534 3.835 4.014-.486 1.02-.98 1.294-2.538 1.408-1.178.087-2.121-.099-2.413-.474zm3.406-2.275c0-.87-.285-1.227-1.069-1.338-1.165-.165-1.827.852-1.355 2.082.171.447.714.684 1.355.593.784-.111 1.07-.468 1.07-1.337zm2.609.053c0-2.793 0-2.793 4.043-2.791 4.591.001 4.967.278 4.967 3.655 0 1.612-.155 1.928-.948 1.928-.808 0-.949-.316-.949-2.134 0-1.508-.193-2.134-.66-2.134-.799 0-1.237 1.022-1.237 2.884 0 .89-.244 1.384-.684 1.384-.466 0-.73-.643-.83-2.015-.102-1.411-.359-2.016-.857-2.016s-.755.605-.857 2.016c-.118 1.629-.322 2.015-1.067 2.015-.808 0-.921-.344-.921-2.792zm59.281-.006c0-2.798 0-2.798 1.66-2.798 1.315 0 1.66.188 1.66.901 0 .496-.267.848-.593.783-.383-.077-.644.595-.738 1.897-.118 1.63-.323 2.016-1.068 2.016-.808 0-.92-.344-.92-2.799zm3.794-1.47c0-3.952.07-4.268.949-4.268.826 0 .948.316.948 2.454 0 2.454 0 2.454 1.144 1.38.628-.591 1.502-1.002 1.942-.913.715.145.694.294-.198 1.426-.997 1.264-.997 1.264.234 2.727 1.23 1.463 1.23 1.463.043 1.463-.744 0-1.552-.488-2.162-1.305-.973-1.304-.973-1.304-.988 0-.01.983-.248 1.305-.963 1.305-.878 0-.949-.317-.949-4.269zm32.724 1.423c0-2.693.061-2.846 1.147-2.846.63 0 1.467-.123 1.86-.273.392-.15 1.157.17 1.699.711.705.706.985 1.591.985 3.12 0 1.796-.146 2.134-.921 2.134-.745 0-.95-.387-1.068-2.016-.102-1.41-.359-2.016-.857-2.016s-.755.605-.857 2.016c-.118 1.63-.322 2.016-1.067 2.016-.81 0-.921-.345-.921-2.846zm23.712 0c0-2.53.106-2.846.949-2.846s.948.317.948 2.846c0 2.53-.105 2.846-.948 2.846s-.949-.317-.949-2.846zm9.485 0c0-2.846 0-2.846 1.542-2.902 3.375-.123 4.15.569 4.15 3.704 0 1.707-.152 2.044-.922 2.044-.744 0-.949-.387-1.067-2.012-.106-1.467-.37-2.054-.976-2.169-.692-.131-.83.202-.83 2.012 0 1.852-.138 2.169-.948 2.169-.843 0-.949-.317-.949-2.846zm-58.928-.753c-.194-.195-.353-.745-.353-1.223 0-.71.379-.87 2.075-.87 1.897 0 2.075.102 2.075 1.186 0 .945-.239 1.186-1.171 1.186-.814 0-1.258-.326-1.455-1.067-.285-1.067-.285-1.067-.551.037-.147.607-.425.945-.62.75zm2.73-1.144c.16-.26.066-.474-.21-.474s-.502.213-.502.474c0 .26.094.474.21.474.114 0 .34-.213.501-.474zm46.713-2.847c0-.632.317-.948.949-.948.632 0 .948.316.948.948 0 .633-.316.949-.948.949-.632 0-.949-.316-.949-.949zM26.958 36.753c-2.171-1.18-2.79-3.3-2.785-9.555.003-3.09.142-6.764.31-8.164.278-2.317.446-2.603 1.878-3.201.864-.361 2.227-.657 3.029-.657 1.457 0 1.457 0 1.082 5.573-.515 7.652-.467 9.593.281 11.382.54 1.29.896 1.54 2.183 1.54.847 0 2.078-.423 2.738-.942 1.174-.924 1.202-1.091 1.368-8.25.148-6.38.284-7.433 1.074-8.307 1.053-1.163 4.46-2.224 5.096-1.587.253.253.21 3.633-.106 8.291-.637 9.378-.38 10.465 2.524 10.706 1.98.164 3.366-.602 4.662-2.578.834-1.271.828-1.323-.301-2.666-1.582-1.88-2.743-6.116-2.466-8.998.298-3.108 1.608-4.832 3.815-5.02 3.487-.299 4.69 3.015 3.547 9.764-.66 3.897-.66 3.897.673 3.897 1.237 0 1.333-.135 1.333-1.88 0-2.425 1.205-6.002 2.684-7.965 1.62-2.151 4.349-3.434 7.303-3.434 4.722 0 7.587 2.63 6.894 6.327-.429 2.285-3.294 4.672-7.582 6.316-1.854.711-3.472 1.37-3.594 1.464-.552.424 2.189 4.523 3.466 5.183 2.204 1.14 5.262.6 7.19-1.268 1.426-1.382 2.609-1.592 2.609-.463 0 1.084-3.058 3.765-5.079 4.454-5.728 1.952-11.23-.464-12.955-5.688-.522-1.582-.683-1.698-1.997-1.435-.786.157-1.68.286-1.986.286-.306 0-.82.728-1.142 1.619-.322.89-1.41 2.364-2.419 3.275-3.566 3.221-9.855 3.447-11.747.422a79.803 79.803 0 00-.93-1.467c-.07-.1-.876.476-1.79 1.279-2.635 2.313-6.438 3.063-8.86 1.747zM52.543 25.1c.605-2.62.723-5.616.268-6.802-.159-.412-.773-.75-1.366-.75-1.478 0-2.355 2.222-1.974 5 .305 2.227 1.482 4.96 2.136 4.96.209 0 .63-1.084.936-2.408zm13.064.098c4.435-2.011 5.917-4.845 3.398-6.495-2.177-1.427-5.197.116-6.39 3.263-.52 1.371-.7 4.593-.258 4.593.136 0 1.598-.612 3.25-1.361zM83.3 36.779c-3.995-1.425-5.263-3.705-5.287-9.51-.021-5.21.933-8.021 3.512-10.352 2.834-2.56 7-2.87 9.728-.725.99.78 1.208.819 1.208.22 0-1.018 1.657-1.794 3.46-1.62 1.52.147 1.52.147 1.52 9.491 0 8.085.106 9.452.789 10.14 1.032 1.038 2.837.593 4.393-1.085.994-1.073 1.225-1.152 1.473-.506.811 2.114-3.293 4.924-6.554 4.486-1.956-.262-4.36-2.12-4.886-3.777-.26-.82-.377-.77-1.145.493-.828 1.361-4.337 3.454-5.721 3.411-.374-.01-1.495-.311-2.49-.666zm5.2-3.884c2.777-1.317 4.465-6.276 3.514-10.321-.622-2.65-1.982-3.836-4.325-3.774-3.667.096-5.508 3.403-5.056 9.085.245 3.085 1.063 4.566 2.95 5.339.523.213 1.024.401 1.115.418.09.016.902-.32 1.802-.747zm23.061 4.11c-4.966-1.177-6.777-5.698-6.75-16.85C104.845 7.162 108.352 0 114.686 0c1.515 0 2.116.282 3.106 1.46.738.876 1.228 2.04 1.228 2.915 0 1.788-2.955 10.523-4.824 14.258-.756 1.51-1.793 3.105-2.306 3.544-.736.63-.932 1.4-.93 3.657.005 5.495 1.377 7.838 4.592 7.838 1.03 0 2.07-.467 3.148-1.414 1.611-1.414 1.611-1.414 1.846-8.333.26-7.657.342-7.865 3.422-8.693 2.024-.544 3.37.014 2.912 1.208-.134.351-.275 3.838-.313 7.75-.056 5.87.067 7.318.709 8.296 1.103 1.684 3.26 1.598 5.06-.2 1.386-1.387 1.386-1.387 1.386-9.96s0-8.573-5.112-8.573c-5.45 0-7.219-.578-7.219-2.359 0-2.64.932-2.844 7.588-1.672 2.217.39 4.287.71 4.6.71.36.001.622-.999.712-2.725.141-2.715.152-2.732 2.276-3.784 1.174-.581 2.561-1.008 3.083-.949.877.1.936.398.782 3.951-.167 3.843-.167 3.843 1.66 4.145 1.004.166 2.51.304 3.346.307 1.348.005 1.548-.17 1.774-1.536.14-.848.31-2.289.377-3.201.107-1.443.4-1.8 2.24-2.727 2.378-1.2 3.614-1.35 3.91-.475.11.326.079 2.269-.07 4.317-.271 3.724-.271 3.724 1.813 3.439 1.147-.158 2.7-.286 3.453-.286 1.056 0 1.481-.298 1.863-1.302.748-1.966 2.684-4.304 4.225-5.101 1.65-.853 4.804-.933 5.595-.142.313.313.57 1.358.57 2.322 0 1.408-.325 2.039-1.65 3.202-.908.796-2.403 1.59-3.324 1.762-1.241.233-1.75.61-1.962 1.459-.158.629-.205 4.716-.105 9.081.158 6.916.306 8.15 1.145 9.592 1.184 2.032 2.686 2.339 4.584.935 1.84-1.36 2.51-.655 1.287 1.356-.58.953-1.787 1.932-3.101 2.513-1.932.855-2.353.888-4.123.324-1.369-.437-2.193-1.064-2.697-2.051a52.17 52.17 0 00-.855-1.632c-.07-.114-.458.262-.861.837-1.562 2.23-6.494 3.803-9.088 2.899-1.572-.548-2.953-2.232-2.978-3.629-.013-.667-.225-.566-1 .474-1.247 1.672-4.06 3.118-6.794 3.493-1.967.27-2.241.17-3.795-1.384-.922-.921-1.675-2.065-1.675-2.542 0-.648-.361-.429-1.429.866-1.797 2.181-4.49 3.082-8.435 2.823-1.31-.086-3.415-2.228-3.415-3.477 0-.708-.311-.541-1.488.799-.818.932-1.832 1.872-2.253 2.088-1.277.657-3.995.915-5.614.531zm33.762-4.805c1.677-1.472 1.677-1.472 1.677-9.96 0-8.487 0-8.487-2.964-8.48-1.63.004-3.218.17-3.528.366-.845.538-1.068 17.046-.25 18.479.897 1.57 3.008 1.401 5.065-.405zm13.067.612c1.033-.836 1.064-1.126 1.12-10.413.056-9.314.034-9.547-.891-9.362-.522.105-1.93.317-3.13.472-2.18.28-2.18.28-2.49 6.028-.453 8.435-.385 10.661.379 12.49.595 1.425.905 1.645 2.319 1.645.897 0 2.11-.387 2.693-.86zm-45.13-15.89c1.525-3.665 3.387-10.265 3.387-12.004 0-1.322-.669-1.771-2.104-1.41-2.103.527-3.296 4.526-3.831 12.837-.3 4.66-.259 5.137.398 4.591.404-.334 1.371-2.14 2.15-4.014zm55.199-8.255c1.038-.94 1.077-2.027.072-2.027-.776 0-3.51 2.615-3.51 3.358 0 .545 2.385-.378 3.438-1.33zm10.287 28.14c-2.917-.771-4.997-2.34-6.256-4.716-.838-1.584-1.048-2.777-1.056-6.017-.009-3.415.177-4.406 1.201-6.398.736-1.432 2.01-2.917 3.244-3.784 1.767-1.241 2.445-1.427 5.191-1.426 2.502 0 3.466.22 4.637 1.055 5.07 3.612 1.92 9.253-6.695 11.983-1.044.33-2.056.692-2.25.802-.477.272 1.21 3.5 2.385 4.563 2.302 2.082 5.905 1.8 8.444-.661 1.35-1.309 1.632-1.42 1.891-.745.489 1.272-.994 2.98-3.695 4.255-3.364 1.59-4.491 1.764-7.041 1.09zm1.955-12.407c2.696-1.355 3.34-2.118 3.395-4.02.048-1.716-.676-2.34-2.726-2.351-2.829-.014-4.967 2.64-4.967 6.166 0 1.807.08 1.928 1.067 1.622.587-.181 2.041-.82 3.231-1.417zM26.54 11.856c-1.196-1.196-1.194-1.93.013-3.465 1.188-1.51 2.5-1.963 3.753-1.293 1.61.862 2.051 2.19 1.246 3.748-1.125 2.175-3.39 2.632-5.012 1.01z" fill="#999" fill-rule="nonzero"/></svg>