<svg viewBox="0 0 242 19" width="242" height="19" 
    xmlns="http://www.w3.org/2000/svg">
    <g fill-rule="nonzero" fill="none">
        <g fill="#999">
            <path d="M.788 9.223C.788 4.02 4.73 0 10.09 0c3.626 0 5.912 1.498 7.489 3.705l-3.705 2.838c-1.025-1.262-2.208-2.05-3.863-2.05-2.444 0-4.257 2.128-4.257 4.651v.079c0 2.68 1.735 4.73 4.257 4.73 1.813 0 2.917-.868 4.02-2.129l3.705 2.601c-1.655 2.286-3.941 4.02-7.804 4.02-5.045-.078-9.144-3.94-9.144-9.222M25.777 13.716h8.513v4.257h-13.4V.315h4.887zM52.184 4.493h-9.38v2.68h8.434v3.863h-8.435v2.838h9.46v4.099H37.916V.315h14.268zM65.663 7.173L69.841.315h5.203v17.658h-4.888V7.883l-4.493 6.858h-.079l-4.572-6.858v10.09h-4.73V.315h5.125zM93.726 4.493h-9.38v2.68h8.513v3.863h-8.514v2.838h9.538v4.099H79.537V.315h14.189zM109.649 9.696V.316h4.887v17.657h-4.257l-7.567-9.696v9.696h-4.887V.315h4.572zM118.162 9.223c0-5.203 4.02-9.223 9.538-9.223 3.075 0 5.282.946 7.174 2.601l-2.917 3.469c-1.261-1.025-2.522-1.656-4.257-1.656-2.522 0-4.493 2.129-4.493 4.888v.078c0 2.838 1.97 4.888 4.809 4.888 1.182 0 2.128-.237 2.837-.71V11.43h-3.468V7.804h8.12v7.961a11.845 11.845 0 01-7.647 2.76c-5.518-.158-9.696-3.942-9.696-9.302M153.871 4.493h-9.38v2.68h8.434v3.863h-8.434v2.838h9.459v4.099h-14.347V.315h14.268zM169.952 11.824c2.207-.946 3.626-2.759 3.626-5.439v-.079c0-1.734-.552-3.074-1.577-4.099-1.182-1.182-3.074-1.892-5.754-1.892h-8.356v17.658h4.888v-5.36H164.986l3.547 5.36h5.675l-4.256-6.149zM168.69 6.7c0 1.262-.946 2.129-2.602 2.129h-3.232V4.572h3.232c1.577 0 2.602.71 2.602 2.128z"/>
        </g>
        <g fill="#CCC">
            <path d="M190.526 8.671c1.024-.71 1.734-1.892 1.734-3.547v-.079c0-1.419-.552-2.68-1.655-3.468-1.025-.868-2.523-1.262-4.336-1.262h-8.198v17.658h8.435c1.97 0 3.626-.394 4.808-1.262 1.182-.867 1.892-2.128 1.892-3.783v-.08c0-2.049-1.104-3.389-2.68-4.177zm-8.04-4.257h3.231c.71 0 1.262.158 1.577.394.315.237.473.473.473.946v.08c0 .551-.158.787-.552 1.024-.394.236-.946.394-1.734.394h-2.996V4.414zm6.227 8.12c0 .551-.158.788-.552 1.024-.315.237-.946.394-1.734.394h-4.02v-2.916h3.862c.867 0 1.498.157 1.813.394.473.236.63.552.63 1.104z"/>
            <path d="M205.188 8.671c1.024-.71 1.734-1.892 1.734-3.547v-.079c0-1.419-.552-2.68-1.656-3.468-1.024-.868-2.522-1.262-4.335-1.262h-8.198v17.658h8.434c1.971 0 3.626-.394 4.809-1.262 1.182-.867 1.892-2.128 1.892-3.783v-.08c0-2.049-1.025-3.389-2.68-4.177zm-8.04-4.257h3.231c.71 0 1.261.158 1.577.394.315.237.473.473.473.946v.08c0 .551-.158.787-.552 1.024-.394.236-.946.394-1.734.394h-2.996V4.414zm6.227 8.12c0 .551-.158.788-.552 1.024-.316.237-.946.394-1.734.394h-4.02v-2.916h3.862c.867 0 1.498.157 1.813.394.473.236.63.552.63 1.104z"/>
            <path d="M221.11 2.838c-1.655-1.577-4.02-2.523-6.7-2.523h-6.936v17.658h6.936c2.76 0 5.045-.946 6.7-2.523 1.656-1.576 2.602-3.784 2.602-6.306v-.079c0-2.444-.946-4.65-2.601-6.227zm-2.049 6.385c0 2.759-1.813 4.572-4.65 4.65h-2.444v-9.38h2.443c2.838 0 4.651 1.892 4.651 4.73z"/>
            <path d="M239.005 2.68c-1.656-1.655-4.02-2.68-6.7-2.68-2.68 0-5.046 1.025-6.701 2.68a9.115 9.115 0 00-2.68 6.464v.079c0 2.522.946 4.73 2.601 6.385 1.655 1.655 4.02 2.68 6.7 2.68 2.68 0 5.045-1.025 6.7-2.68a9.115 9.115 0 002.68-6.464v-.079c0-2.444-.945-4.73-2.6-6.385zm-2.05 6.543c0 2.68-1.892 4.808-4.65 4.808-2.76 0-4.652-2.207-4.73-4.887v-.079c0-2.68 1.891-4.808 4.65-4.808 2.76 0 4.73 2.207 4.73 4.966z"/>
        </g>
    </g>
</svg>