<svg viewBox="0 0 150 59" width="150" height="59" 
    xmlns="http://www.w3.org/2000/svg">
    <g fill="#999" fill-rule="nonzero">
        <path d="M21.225 1.9C9.75 1.9 0 10.1 0 22.725c0 11.35 8.675 20.35 21.1 20.35 11.475 0 21.225-8.2 21.225-20.825.025-11.325-8.65-20.35-21.1-20.35zm0 38.75C13.75 40.65 8.4 33 8.4 22.45c0-10.1 5.075-18.075 12.725-18.075 7.475 0 12.825 7.65 12.825 18.2 0 10.075-5.075 18.075-12.725 18.075zM140.25 17.525v1.725l2.3.45c.8.175 1.025.8.525 2.05L137.8 34.425c-.225.525-.525.525-.675 0l-4.9-12.675c-.525-1.3-.225-1.875.575-2.05l2.275-.45v-1.725H114.75v1.725l2.3.45c.8.175 1.1.8.575 2.05L112.55 35.1c-.225.525-.525.525-.675 0l-5.15-13.35c-.45-1.3-.225-1.875.575-2.05l2.275-.45v-1.725h-12.9v1.75l1.275.275c.85.175 1.375.625 1.725 1.425l8.725 21.45h3.95l8.725-21.45c.45-1.125.975-1.6 1.875-1.6h.35c.75 0 1.3.275 1.775 1.375l9.125 22.275-2.45 5.825c-1.6 3.875-2.775 4.575-4.275 4.575-.625 0-1.3-.1-2-.1-1.775 0-2.85 1.275-2.85 2.625 0 1.55 1.275 2.625 3.25 2.625 2.85 0 5.65-2.3 8-7.75L146.25 21.65c.575-1.3 1.3-1.875 2.5-2.125L150 19.3v-1.775h-9.75zm-80 22.7l-9.525 1.2c-3.125.4-4.125-.625-4.125-2.225 0-1.875 2.05-3.375 9.2-3.375h.1c5.175 0 11.3-3.125 11.3-9.925 0-2.175-.8-4.15-2.3-5.775a7.175 7.175 0 01-.675-3.525c0-5.025 3.425-7.875 6.975-7.875 1.475 0 1.95.225 1.95 1.275 0 .275-.075.525-.075.85 0 1.775 1.475 3.425 3.6 3.425 2.175 0 3.525-1.725 3.525-3.6 0-2.85-2.575-4.975-7.3-4.975-6.525 0-11.525 4.225-11.525 10.675 0 .525.075.925.075 1.3a13.38 13.38 0 00-5.325-1.025c-5.15 0-11.3 3.125-11.3 9.925 0 3.125 1.775 6.05 4.85 7.75-4.575.625-7.175 3.075-7.175 6.9 0 3.875 3.075 6.675 8.85 6l8.325-1.025c4.15-.525 5.525.975 5.525 3.125 0 3.775-3.525 6.8-9.2 6.8-4.5 0-6.175-1.6-6.175-3.875l.075-1.125c0-1.375-.85-2.325-2.225-2.4-1.6 0-2.575 1.125-2.575 2.775 0 3.775 3.6 7.125 10.95 7.125 8.275 0 13.525-5.35 13.525-11.525.025-4.875-3.9-7.55-9.325-6.875zm-4.275-21.5c2.675 0 4.85 3.025 4.85 7.65 0 3.975-1.825 7.425-4.675 7.425-2.75 0-4.9-3.025-4.9-7.65-.025-3.95 1.8-7.425 4.725-7.425z"/>
        <path d="M94.425 39.5V0l-10.05 2.575v1.2l2.85.925c.45.175.625.525.625.975V39.35c0 .625-.525 1.1-1.275 1.1l-2.55.05-2.7-.05c-.75 0-1.275-.45-1.275-1.1V16.575l-10.025 2.55v1.2l2.85.925c.45.175.625.525.625.975v17.3c0 .525-.275.8-.675.85l-2.325.275v1.825h27.375V40.65l-2.775-.275c-.375-.075-.675-.35-.675-.875z"/>
    </g>
</svg>