<svg viewBox="0 0 201 72" width="201" height="72" xmlns="http://www.w3.org/2000/svg" xmlns:xlink="http://www.w3.org/1999/xlink"><defs><path id="a" d="M.895.536h199.94v75.187H.895z"/></defs><g fill="none" fill-rule="evenodd"><mask id="b" fill="#fff"><use xlink:href="#a"/></mask><path d="M398.28 54.924c.338.041.787.086.629.758-.18.666-.86 1.543-.964 1.672-.587.788-1.372 1.27-2.274 1.718-1.06.53-5.012 2.293-5.278 1.672-.254-.379.05-1.52.55-2.224 1.6-2.426 4.433-3.905 7.337-3.596zm-31.15 7.227c-.734-.037-1.301-.252-1.596-.828-.376-.708.24-1.111.733-1.46 2.112-1.554 4.643-2.484 6.846-3.907.52-.334 1.533-1.035 1.633-.967.217 3.941-3.482 7.33-7.616 7.162zm-21.739-.775c-.551.03-1.22-.205-1.873-.46-1.875-.746-2.005-1.64-.567-2.913 2.144-1.882 4.567-3.361 6.892-5.017 1.04-.737 2.243-.851 3.455-.24.966.491 1.354 1.219 1.154 2.156-.611 2.855-5.673 6.511-9.06 6.474zm-31.11 15.571c-2.885 2.03-6.545 4.54-8.996 5.265-.686.203-1.596.394-1.19-.346.77-1.399 3.218-3.166 4.854-4.313 3.79-2.665 11.158-7 15.089-9.24 1.534-.879 5.83-3.452 7.426-4.253 1.942-.227-12.92 9.896-17.184 12.887zm-76.303-33.602c-2.761 2.671-5.172 4.157-8.104 6.64-4.886 4.132-10.022 7.972-15.517 11.42-4.925 3.09-10.324 4.844-16.435 4.23-2.198-.225-4.19-.882-5.986-2.055-1.686-1.1-1.961-2.221-2.247-3.807-.469-2.285.793-5.085 2.257-7.178 3.248-4.61 7.763-7.653 13.838-8.598 2.383-.375 6.427.148 7.686 3.774-.018.388-2.909 1.293-4.424 1.85-3.339 1.233-6.817 2.176-9.679 4.267-1.067.793-2.042 1.605-2.523 2.823-1.004 2.555.414 4.52 3.457 4.695 1.26.06 2.484-.175 3.693-.527 5.076-1.442 8.676-4.433 11.029-8.675.887-1.579 2.07-2.62 3.95-3.253 6.104-2.045 11.594-3.269 17.668-5.395.394-.13 2.042-.854 1.337-.21zm-24.994 7.802c-2.55 3.59-6.08 6.31-10.71 7.526-.659.18-1.317.128-1.687-.294-.457-.54-.514-1.22-.138-1.778 1.022-1.502 1.966-1.753 3.168-2.364 2.483-1.267 5.244-1.711 7.824-2.795 1.31-.497 1.916-.76 1.543-.295zM309.4 5.813c3.504-2.198 6.292-2.534 7.361-1.892 4.065 2.528-17.902 14.026-22.37 16.184-2.153 1.045-5.091 2.173-7.269 3.17 4.354-4.739 19.331-15.61 22.278-17.462zm150.72 58.41c-1.35-.338-2.802-.097-4.223-.156-2.539-.09-22.235-.586-24.75-1.12-3.497-.738-4.432-2.786-2.338-5.391.626-.768 1.369-1.462 2.082-2.156.694-.671 1.618-1.713 1.574-2.218-.14-.806-.979-.473-1.495-.343-1.697.44-3.261 1.173-4.839 1.87-2.873 1.295-5.753 2.58-8.658 3.802-.715.3-2.826 1.135-2.56.448.603-1.386 1.182-2.728 1.214-4.192.048-1.865-.733-2.567-2.818-2.42-2.64.195-4.815 1.478-7.083 2.534-1.777.845-3.456 1.824-5.185 2.76 1.199-1.817.56-3.763.465-3.918-.276-.594-.818-.914-1.591-1.164-2.354-.762-4.534-.34-6.39 1.002a899.8 899.8 0 01-1.25.89c-.076.042-.135.088-.2.138-3.628 2.526-7.428 4.767-11.655 6.373-1.678.624-6.092 2.047-5.746 1.662.884-.98 2.453-3.84 2.558-5.763.11-2.111 1.218-3.582 2.974-4.788.671-.472 1.292-1.016 1.916-1.544.745-.626 1.692-1.35 1.508-2.263-.285-1.274-2.714-.719-4.148.65-4.04 3.872-8.73 6.94-14.071 9.226-.768.316-1.532.656-2.408.692-1.102.038-1.951.522-2.86 1.045-2.284 1.337-5.13 2.339-7.986 1.885-.175-.104 1.06-1.079 1.317-1.309.436-.397 2.814-2.81 3.648-4.857.796-1.875.623-2.79-.968-4.156-.687-.588-2.175-1.963-1.803-2.124.98-.788 3.705-2.827 5.443-4.392 1.679-1.514 3.898-2.405 5.858-3.57 1.759-1.042 3.29-2.248 4.363-3.878.244-.357.655-.808.13-1.218-.427-.331-.942-.256-1.417-.017-.143.07-.255.137-.401.199-7.187 3.416-14.173 7.18-21.161 10.906-8.35 4.449-16.761 8.8-25.352 12.843-.645.297-2.042.994-2.199.532-.19-1.632.65-2.52.89-3.752.154-.823.363-1.717-.36-2.29-.7-.572-1.724.064-2.907.585-4.3 1.866-8.516 3.878-12.765 5.816-.495.218-1.31.483-1.49.08-.085-.247.15-.818.92-1.79.98-1.22 1.06-2.27.303-3.25-.818-1.058-1.536-.98-2.973-.44-2.042.764-4.087 1.767-6.121 2.656-1.501.66-4.597 2.307-4.773 1.64-.158-.822.925-1.66 1.38-2.44.453-.774.958-1.602.197-2.4-.774-.802-1.801-1.036-3.003-.696-1.934.538-3.756 1.25-5.446 2.236-2.193 1.302-4.322 2.678-6.688 3.699-1.705.728-5.042 1.32-5.409.902-.263-.491.597-1.376 1.027-1.971 1.86-2.52 4.188-4.232 6.916-5.877.412-.251 1.182-.612 1.662-.19.42.359.186 2.41-.55 3.277-.453.531-.303 1.29.452 1.298a.822.822 0 00.385-.149c1.281-.783 2.286-3.371 1.72-5.046-.533-1.051-1.532-1.509-2.983-1.24-1.146.22-2.217.646-3.203 1.199-1.829 1.01-3.606 2.12-5.445 3.16-4.262 2.402-8.656 4.923-13.59 6.108-.81.19-1.524.42-2.502.153-1.07-.281 2.502-3.783 4.281-5.251 1.44-1.2 3.092-2.2 4.236-3.677 1.415-1.857.509-3.549-2.016-3.776-1.939-.18-3.66.393-5.317 1.229-1.199.597-2.43 1.167-3.637 1.774 2.52-2.39 5.169-4.558 7.856-6.73a467.59 467.59 0 0017.585-14.957c1.304-1.167 4.084-3.358 5.057-3.79 6.48-2.882 12.251-5.532 18.418-8.915 4.5-2.483 8.657-4.949 13.006-7.908 3.418-2.325 4.725-4.525 5.146-6.258.38-1.551-.34-2.86-1.839-3.42-1.53-.58-3.487-.39-5.224.159-4.587 1.443-9.084 4.74-13.33 7.73-6.126 4.324-11.264 9.67-16.912 14.456-1.683 1.406-3.588 3.59-5.71 4.515-7.804 3.389-15.143 6.406-23.335 9.061-1.593.524-3.232.939-4.85 1.414-.69.201-.233-.212-.125-.32 3.522-3.724 7.155-7.294 12.382-9.213 2.997-1.099 5.618-2.609 6.784-5.521.186-.464.482-1.187-.25-1.66-.604-.399-1.062-.262-1.636.02-2.51 1.27-4.764 2.855-7.014 4.467-2.028 1.45-3.452 3.22-6.24 4.179-5.788 1.985-14.331.527-17.157-5.778-.536-1.209-1.228-2.374-2.171-3.409-.713-.773-1.435-.741-2.207-.162-.758.59-1.255 1.267-1.255 2.234 0 1.982.898 3.569 2.417 4.939 3.977 3.615 8.693 5.514 14.401 5.374 1.342-.024.892-.039 2.821-.308.816-.221-.28.72-.42.845-5.116 4.51-5.992 6.125-12.924 8.275-6.173 1.916-12.565 3.087-18.69 5.119-.654.215-1.006.054-1.343-.474-2.588-4.194-7.556-4.834-11.716-4.102-7.577 1.33-14.875 6.065-17.17 14.651-1.015 3.8.621 7.717 4.465 9.57 2.792 1.347 5.81 2.044 8.997 1.784 6.507-.506 12.565-2.394 18.141-5.428 8.52-4.627 15.489-10.924 22.048-17.594 2.567-2.603 5.273-4.73 9.062-5.96 7.048-2.303 13.78-4.56 20.657-7.412 1.115-.462 3.686-1.643 3.548-1.432.138.063-.868.835-1.28 1.201-3.068 2.752-6.047 4.98-9.135 7.707-8.43 7.412-17.134 14.576-25.918 21.64-1.53 1.23-3.3 2.247-4.45 3.843-.285.385-.798.848-.213 1.323.543.417 1.114.21 1.627-.171a370.647 370.647 0 013.268-2.412c6.122-4.516 12.96-7.927 20.122-10.851.437-.19 1.45-.567 1.327.091-.015.486-2.133 2.509-3.381 3.63a84.202 84.202 0 00-5.954 5.785c-1.046 1.12-.773 2.092.67 2.72.9.395 1.83.41 2.8.258 3.453-.549 6.608-1.82 9.71-3.227 1.4-.63 2.783-1.302 4.183-1.948.52-.303-.644 1.306-1.06 1.86-.733.981-.637 1.737.357 2.483.69.504 1.495.645 2.405.543 3.341-.415 6.105-1.973 8.834-3.6 2.334-1.41 4.649-2.79 7.26-3.837 1.265-.507 3.175-.286 2.483.672-1.373 1.595-2.77 3.197-4.152 4.815-.394.461-.95.973-.469 1.579.5.631 1.188.174 1.767-.014 3.55-1.135 6.934-2.59 10.355-4.027 1.36-.565 4.313-1.913 4.358-1.505.183.702-1.719 3.768-2.541 5.677-.185.607.36.703 1.239.562 1.546-.26 4.485-1.535 5.915-2.01 3.624-1.213 6.994-2.873 10.512-4.286.657-.262 2.125-.67 1.929.03-.18 1.428-.447 2.876-.495 4.305-.043 1.377.322 1.555 1.692 1.024a56.491 56.491 0 003.11-1.344c7.332-3.41 14.149-7.576 21.255-11.325 4.017-2.107 13.646-7.063 12.772-6.187-1.018.918-1.307 1.074-1.791 1.477-.698.582-1.227.883-1.958 1.436-5.523 4.143-10.94 8.4-16.463 12.55-2.746 1.426-9.857 5.166-13.462 7.295-3.3 1.95-13.615 7.77-16.631 10.065-1.68 1.3-3.128 2.326-3.673 4.253-.321 1.136.402 2.436 1.546 2.79 1.178.374 2.5.23 3.734-.317 3.668-1.612 6.51-3.631 9.975-6.064 4.62-3.24 15.246-11.148 19.314-14.808.274-.251 1.5-1.234 1.678-1.2 2.105-.604 6.626 1.105 8.314 1.026 1.56-.057 3.14-.376 4.636-.18 2.522.338 4.9.144 7.274-.563 1.289-.382 2.555-.343 3.859-.169.765.095 1.358.55 2.12.685 6.41 1.052 12.68.598 18.886-1.158 1.409-.406 4.113-1.722 4.207-1.399.277 1.04.382 1.506.657 2.182.637 1.486 1.09 1.632 2.69.919a217.2 217.2 0 015.365-2.304c.812-.252 9.332-4.52 14.255-6.288 1.714-.617 2.642.383 2.352 2.04-.102.59-.442 1.11-.76 1.624-.57.898-1.157 1.808-1.699 2.727-.308.54-.885 1.156-.303 1.738.59.595 2.13.173 3.085-.42 4.417-2.725 8.972-4.55 13.794-6.467.304-.137.92-.298 1.065-.175.164.111-.493.803-.776 1.101-2.735 2.965-1.356 5.283-.35 5.859.96.551 1.582.627 2.478.887 4.564 1.295 25.286 1.686 29.988 1.863 1.687.063 2.653-.406 2.76-1.03.115-.662-.47-.955-1.028-1.098zM-13.65 62.222c-10.69 6.939-22.658 14.511-34.38 19.964C-58.379 87-68.98 91.26-80.05 94.588c-7.962 2.385-16.05 4.287-24.301 5.63-4.746.785-9.52 1.32-14.367.976-1.215-.085-2.366-.31-3.53-.629-3.129-.895-3.506-3.233-2.036-5.162 1.487-1.862 2.636-2.531 4.206-3.52 6.346-4 13.552-6.777 20.603-9.479 11.686-4.477 23.566-8.117 35.656-11.556 9.281-2.651 18.675-4.889 28.209-6.617 7.412-1.344 14.9-2.343 22.409-3.246 2.358-.286.919.35-.448 1.237zM11.465 40.31c-1.567-.661-2.656-2.541-2.69-3.876-.046-1.325.084-2.835.745-3.994.514-.895 1.384-.692 2.04-.68 2.15.04 5.148 3.313 5.129 5.323-.042 3.101-2.298 4.475-5.224 3.227zm4.371-16.138c7.78-9.5 17.212-17.33 28.678-23.06 2.334-1.172 4.698-2.242 7.158-3.172.227-.087.447-.178.707-.231 1.272-.277 2.571-.584 3.612.513.828.878.717 2.007-.193 3.412-4.652 7.066-10.472 13.27-17.045 18.95-6.06 5.236-12.09 10.508-18.14 15.761-.248.206-.506.404-.923.73-1.06-3.865-2.517-6.495-7.368-7.898-.072-.022-.109-.098-.074-.157 1.015-1.747 2.311-3.3 3.588-4.848zm-.726 33.399c-.01-1.035-1.047-.915-1.82-.957-2.119-.102-7.156.283-9.262.46-.962.088-1.897.24-3.012-.084a.166.166 0 01-.061-.292c.338-.275.546-.452.825-.666 3.632-2.722 7.273-5.466 10.916-8.171 6.46-4.782 12.323-10.04 18.32-15.278 6.996-6.088 15.035-13.479 19.66-19.139 3.362-4.319 6.883-8.292 8.898-13.476 1.315-2.396-.28-4.782-3.236-4.96a9.211 9.211 0 00-1.502.07c-1.71.193-3.295.748-4.856 1.408-6.165 2.578-11.968 5.72-17.388 9.436-5.386 3.676-10.413 7.69-14.906 12.262-3.002 3.062-6.15 6.821-8.787 10.16-.409.515-.362.633-1.425.759-2.184.26-9.193 1.173-10.233.836-2.79-.908-5.214-.332-5.895 2.272-.182.638.264 1.926.911 2.369.726.496 2.49.538 3.182.094 2.205-1.42 3.594-1.53 6.089-2.105 1.55-.358 3.583-.792 4.887-.565.427-.058-.343 1.341-.686 3.413-.535 3.218 1.227 5.919 4.722 6.814.67.179 1.328.377 2.245.625-1.135.946-2.074 1.769-3.048 2.54C4.077 49.86-1.801 53.951-7.848 57.88c-.923.603-1.463.573-2.248.651-5.49.522-10.985 1.015-16.42 1.906a319.216 319.216 0 00-33.882 7.427c-9.926 2.749-19.719 5.86-29.438 9.14-8.699 2.917-17.412 5.777-25.53 9.905-4.133 2.107-9.14 4.854-11.098 7.752-2.715 3.141-1.76 6.05 2.3 7.413 5.094 1.715 10.396 1.256 15.52.654 8.2-.95 16.247-2.738 24.189-4.8 6.5-1.68 12.938-3.579 19.25-5.762 3.087-1.059 6.115-2.253 9.147-3.429 3-1.156 6.009-2.284 8.904-3.616 8.965-4.143 17.818-8.492 26.165-13.624 4.19-2.57 10.71-7.095 14.741-9.842 2-1.367 2.501-1.638 4.527-2.095 1.544-.347 3.956-.614 6.908-.654 1.752-.024 6.459-.008 8.212-.206.892-.098 1.728-.23 1.71-1.13zM123.032 60.553c-2.615 1.67-5.242 3.374-8.432 4.102-.738.161-1.478.462-2.05-.242-.572-.711-.55-1.483-.092-2.19a29.954 29.954 0 012.09-2.83c3.79-4.512 8.386-8.294 13.176-11.914 4.132-3.118 8.415-6.442 12.233-9.869.68-.597 1.42-.907 2.412-.902 2.549.025 5.758.062 8.586.407-1.412 1.38-3.482 3.337-4.782 4.575-7.209 6.807-14.633 13.386-23.141 18.863zm8.713-20.44c.717-.665 2.347-2.28 4.334-4.189.842.112 1.733.226 2.609.32-4.501 3.885-9.497 7.826-11.98 9.483 1.332-1.998 3.268-3.994 5.037-5.615zm16.052-13.458c-.02 1.1-3.27 4.397-7.314 8.002-.926-.096-1.856-.18-2.785-.272 3.66-3.443 7.952-7.166 10.1-7.73zm5.894 22.734c-.49 2.913-4.876 5.898-8.602 8.029.051-.127.059-.244.117-.376 1.709-3.907 8.276-8.393 8.485-7.653zM88.808 61.538c-2.949 1.642-5.162 2.256-5.8 2.102-.35-.192.744-1.98 1.332-2.898 1.85-2.875 7.002-7.923 11.796-10.91 2.54-1.574 7.081-3.7 8.46-3.044.937.655-.126 1.637-.738 2.242-2.277 2.296-5.046 4.117-7.501 6.26-2.451 2.153-4.626 4.625-7.55 6.248zm43.767-3.158c2.9-4.257 7.231-7.221 11.225-10.574 4.255-3.573 7.163-6.327 10.724-10.127.488-.515 2.556-.343 3.218-.334 2.974.029 5.941.041 8.9.041 7.375 0 14.697.744 22.06.245.987-.064 2.883-.231 2.739-.788-.138-.681-.659-.583-1.089-.592-3.747-.084-7.51-.197-11.266-.215-5.618-.02-21.311.058-22.18-.489-.57-.567 4.231-3.448 4.14-4.997-.185-.93-2.695.174-3.748.923-1.245.907-1.565 1.312-2.753 2.268-.436.36-1.536 1.621-2.145 1.64-1.636.086-3.484-.165-5.159-.273a46.49 46.49 0 00-3.156-.086c-.596-.06-.704-.111-1.325-.17 1.086-.785 2.898-2.239 3.579-2.866 1.583-1.463 3.137-2.965 3.746-5.018.445-1.538-.235-2.179-1.963-1.889-1.267.21-2.29.894-3.344 1.488-3.328 1.908-6.415 4.482-9.266 6.897-.939.796-.976.475-1.844.361-3.302-.416-6.81-.785-10.087-1.263-1.376-.198-4.015-.827-4.322-.203-.114.582 1.744.874 2.481 1.156 2.393.912 10.415 1.504 11.64 2.188-.094.8-7.913 8.417-11.243 11.883-2.499 2.599-4.75 5.42-7.971 7.403-2.693 1.654-5.415 3.283-8.215 4.808-2.668 1.45-5.492 2.579-8.373 3.643-.868.308-1.635.399-2.343-.281-.725-.723-.165-1.514.17-2.057 1.122-1.817 3.367-4.008 5.537-5.725 2.53-1.992 5.13-3.935 7.661-5.938 1.26-.994 1.306-1.615.32-2.793-.426-.513-.858-.964-.877-1.675-.02-.56-.594-.868-1.08-1.04-1.37-.497-2.814-.727-4.248-.211-2.378.853-4.686 1.878-6.915 2.997-5.932 2.995-10.406 7.371-14.285 12.302-1.142 1.456-2.13 2.967-2.623 4.714-.439 1.546.254 2.426 1.948 2.667 3.148.454 4.998-.155 7.218-1.787.446-.316 1.14-.79 1.756-1.132.335-.185.788-.062.943.269.7 1.526 2.45 2.623 4.45 2.265 1.118-.184 2.257-.32 3.365-.66 3.11-.966 5.907-2.49 8.672-4.055 1.141-.657 2.292-1.32 3.438-1.983.093-.054.218.024.188.12-.199.636-.545 1.125-.858 1.645-.72 1.187-1.538 2.342-1.648 3.758-.052.946.283 1.543 1.421 1.755 1.146.212 2.279.341 3.429.141 3.938-.747 7.489-2.305 10.863-4.218 1.25-.708 2.442-1.512 3.941-2.094-.147.729-.267 1.312-.377 1.885-.253 1.558.057 2.05 1.723 2.483 1.657.45 3.263.057 4.859-.416 2.017-.614 3.746-1.536 5.617-2.396 1.336-.613 1.57-.636 1.72.517.104.799.562 1.145 1.257 1.536 1.607.938 3.119.693 4.621-.336.577-.397 8.956-5.988 13.126-7.964.205.387 0 .61-.138.841-.965 1.56-2.174 2.949-3.544 4.212-.888.817-1.767 1.677-2.716 2.573-.508.489-.617 1.042-.23 1.612.464.687 1.058.27 1.582.068.684-.283 4.275-3.44 4.861-3.857 1.393-1.06 1.644-1.252 4.02-3.225 2.493-2.091 5.874-4.175 9.383-2.24.062.025.692.377.972.36.875.099 1.44-1.46 2.164-2.646.573-.949-.169-2.128-.955-3.012-.78-.865-1.815-.42-2.761-.102-.663.237-1.248.564-1.854.9-1.6.916-2.966 2.168-4.767 2.987-.687-.717-.363-1.385-.212-2.042.125-.56.01-1.087-.662-1.156-1.263-.125-2.52-.301-3.738.514-2.737 1.839-5.38 3.803-8.057 5.722-2.297 1.645-4.63 3.185-7.248 4.394-1.437.666-1.907.395-2.238-.068-.218-.31-.162-.773-.116-1.07.075-.479.597-.626.917-.844 2.019-1.366 3.515-2.309 5.182-3.689 2.187-1.832 4.18-3.803 5.55-6.218.314-.547.63-1.068.2-1.653-.44-.615-1.757-.564-2.387-.461-1.748.261-2.865.824-4.247 1.87-2.837 2.128-4.698 4.972-6.487 7.829-.265.425-.623 1.325-1.16 1.552-1.98.833-2.784 1.373-4.535 2.067-1.427.569-2.711 1.354-4.303 1.546-1.477.18-2.09-.37-1.782-1.688.227-.906.794-1.656 1.314-2.429z" fill="#F5F4F3" mask="url(#b)"/><path d="M105.262 9.684c-2.021 2.938-18.564 13.749-18.708 13.807 4.128-4.424 13.224-12.56 18.708-13.807zm19.687 16.442c3.481-.911 7.945-2.337 11.737-1.417.791.187 1.8-.07 1.872-.958-.072-.666-1.165-1.009-1.977-1.14-1.905-.305-4.126-.244-5.835.035-9.541 1.554-17.513 4.734-25.848 9.154-4.711 2.505-9.257 5.227-13.616 8.254-3.055 2.13-6.175 4.185-9.172 6.39-3.164 2.309-6.376 4.562-9.567 6.835-.12.075-.597.32-.224-.18 1.739-1.987 3.393-4.03 5.229-5.938 4.717-4.9 9.48-9.775 14.275-14.611 2.607-2.63 5.056-5.4 8.377-7.391 2.652-1.586 5.027-3.511 7.34-5.45 1.11-.915 2.27-1.809 3.045-3.001.282-.45.698-.98.13-1.492-.552-.481-1.331-.388-1.955-.098-.346.161-.61.32-.914.55-1.867 1.38-3.901 2.617-5.546 4.17-4.9 4.617-10.304 8.649-16.059 12.335-4.27 2.706-8.585 5.377-12.857 8.08-1.988 1.264-4.397 2.37-5.785 3.285.738-.76 2.91-2.672 4.16-3.844 3.811-3.58 5.574-5.349 9.468-9.518 1.22-1.452 3.441-3.309 4.793-4.423 3.409-2.836 7.322-5.048 11.162-7.355 3.576-2.14 7.092-4.33 9.784-7.397 1.185-1.33.601-2.27-.644-2.87-.95-.268-2.194.055-2.976.342-1.263.444-1.79.737-2.983 1.331-4.465 2.244-7.872 5.585-11.296 8.93-2.447 2.392-4.646 5.023-7.498 7.076-4.743 3.39-10.296 5.238-15.954 6.835a508.348 508.348 0 01-12.096 3.278c-1.057.27-2.684.887-1.895 1.983 1.044 1.139 13.805-3.048 20.928-5.401.703-.197 1.982-.681 1.86-.546-4.375 4.582-9.527 8.838-14.56 12.806-7.124 5.627-14.596 10.842-22.325 15.752-4.465 2.842-8.704 5.988-13.948 7.7-1.263.407-2.842.984-3.658 2.02-.313.399-.55.734.02 1.346.505.517 1.532.34 2.091.158 1.61-.525 2.585-1.08 4.07-1.86 2.064-1.086 3.321-2.621 5.66-3.952a923.89 923.89 0 019.189-5.185c9.332-5.146 18.852-10.008 28.027-15.414 4.081-2.416 8.141-4.839 12.087-7.42 1.53-1.01 2.941-2.181 4.684-2.933-2.233 2.707-4.476 5.376-6.891 7.928C71.946 50.222 64.957 57.497 58 64.777c-.44.45-.828.904-1.02 1.498-.304.934.2 1.504 1.258 1.338.52-.062.887-.367 1.268-.683 6.176-5.136 12.266-10.356 18.62-15.312 6.058-4.722 11.688-8.867 19.019-13.145 9.024-5.264 17.46-9.631 27.804-12.347zM14.52 62.688c-1.733-.064-3.97 2.164-3.828 3.725.137 1.274.963 1.824 2.24 1.707 1.992-.062 4.1-1.81 4.002-3.316-.085-1.332-1.01-2.04-2.413-2.116" fill="#F5F4F3" mask="url(#b)"/><path d="M11.713 33h178.35V30.55H11.712V33zm2.339-12.955v.036c0 1.307.275 2.171 1.655 2.171.994 0 1.674-.663 1.674-1.765V11.23h2.338v9.072c0 2.41-1.565 4.03-4.012 4.03-3.092 0-3.994-2.006-3.994-4.233v-.054h2.339zM21.265 24.11h2.245v-2.3h-2.245zM40.829 24.11h-2.577l-2.282-8.06-2.209 8.06h-2.576l-2.52-12.88h2.41l1.565 9.349 2.372-8.485H37l2.393 8.485 1.546-9.35h2.41l-2.52 12.882M48.376 14.064l-1.62 5.391h3.258l-1.638-5.39zm3.073 10.047l-.773-2.558h-4.582l-.773 2.558h-2.375l4.16-12.881H49.7l4.158 12.88h-2.41zM57.597 11.23v10.765h5.724v2.116h-8.06V11.23h2.336M68.015 13.345v10.766H65.68V13.345h-3.534V11.23h9.44v2.115h-3.57M73.17 11.23h8.539v2.115h-6.184v3.074h5.191v2.134h-5.19v3.442h6.183v2.116H73.17V11.23M85.76 13.345v3.847H88.5c1.343 0 1.896-.773 1.896-2.024 0-1.086-.424-1.823-1.896-1.823H85.76zm4.472 10.766l-2.265-4.803H85.76v4.803H83.42V11.23h5.43c2.999 0 3.937 1.858 3.937 3.9 0 1.841-.846 3.405-2.556 3.847l2.52 5.134h-2.52zM103.814 13.345v10.766h-2.337V13.345h-3.534V11.23h9.44v2.115h-3.57M116.182 24.11v-5.52h-4.876v5.52h-2.337V11.23h2.337v5.19h4.876v-5.19h2.337v12.88h-2.337M122.644 17.688c0 3.221.829 4.509 2.815 4.509 1.97 0 2.817-1.288 2.817-4.509 0-3.257-.847-4.544-2.817-4.544-1.986 0-2.815 1.287-2.815 4.544zm-2.392 0c0-4.82 2.006-6.697 5.207-6.697 3.221 0 5.191 1.858 5.191 6.697 0 4.805-1.97 6.662-5.19 6.662-3.202 0-5.208-1.857-5.208-6.662zM142.447 24.11l.111-9.623-3.185 8.556h-1.637l-3.202-8.556.11 9.624h-2.263V11.23h3.201l2.982 8.299 2.963-8.3h3.201v12.882h-2.281M149.092 13.345v4.14h2.172c1.454 0 2.043-.918 2.043-2.134 0-1.233-.59-2.006-2.043-2.006h-2.172zm0 6.258v4.508h-2.337V11.23h4.767c2.742 0 4.14 1.675 4.14 4.158 0 2.467-1.398 4.215-4.14 4.215h-2.43zM157.026 20.21h2.41c0 .957.331 2.024 2.337 2.024 2.19 0 2.522-.994 2.522-1.804 0-.957-.571-1.397-1.51-1.564l-2.576-.477c-1.894-.35-3.018-1.418-3.018-3.534 0-1.657.92-3.864 4.564-3.864 3.772 0 4.656 2.08 4.656 3.864H164c0-.882-.277-1.804-2.283-1.804-1.692 0-2.152.884-2.152 1.62 0 .792.534 1.344 1.343 1.509l2.374.442c2.023.387 3.385 1.508 3.385 3.698 0 2.062-1.49 4.03-4.932 4.03-3.662 0-4.71-2.042-4.71-4.14M170.48 17.688c0 3.221.827 4.509 2.815 4.509 1.97 0 2.817-1.288 2.817-4.509 0-3.257-.847-4.544-2.817-4.544-1.988 0-2.815 1.287-2.815 4.544zm-2.392 0c0-4.82 2.006-6.697 5.207-6.697 3.221 0 5.19 1.858 5.19 6.697 0 4.805-1.969 6.662-5.19 6.662-3.201 0-5.207-1.857-5.207-6.662zM187.688 24.11l-5.245-8.942.073 8.943h-2.299V11.23h2.41l5.208 8.815-.074-8.815h2.301v12.88h-2.374" fill="#999" mask="url(#b)"/><path d="M11.769 65.039h100.786v-2.447H11.77v2.447zm12.164-8.889h-2.578l-2.28-8.059-2.208 8.059h-2.578l-2.52-12.881h2.41l1.564 9.349 2.375-8.485h1.986l2.393 8.485 1.546-9.35h2.412L23.933 56.15zM29.733 49.727c0 3.221.827 4.51 2.815 4.51 1.968 0 2.815-1.289 2.815-4.51 0-3.257-.847-4.544-2.815-4.544-1.988 0-2.815 1.287-2.815 4.544zm-2.394 0c0-4.82 2.006-6.697 5.209-6.697 3.22 0 5.19 1.858 5.19 6.697 0 4.803-1.97 6.664-5.19 6.664-3.203 0-5.21-1.86-5.21-6.664zM41.806 45.385v3.846h2.742c1.343 0 1.896-.773 1.896-2.024 0-1.086-.424-1.822-1.896-1.822h-2.742zM46.28 56.15l-2.265-4.802h-2.208v4.802h-2.338V43.269h5.43c2.999 0 3.937 1.858 3.937 3.902 0 1.84-.847 3.403-2.556 3.845l2.52 5.134h-2.52zM52.886 43.269v10.765h5.723v2.116h-8.06V43.269h2.337M65.052 45.385h-2.247v8.65h2.247c2.263 0 3.127-1.638 3.127-4.4 0-2.428-.717-4.25-3.127-4.25zM60.468 56.15V43.269h4.896c3.294 0 5.19 2.135 5.19 6.349 0 4.287-1.952 6.532-5.117 6.532h-4.969zM83.75 56.15h-2.577l-2.28-8.059-2.21 8.059h-2.576l-2.52-12.881h2.41l1.564 9.349 2.373-8.485h1.988l2.393 8.485 1.546-9.35h2.41l-2.52 12.882M87.82 56.15h2.337V43.269H87.82zM96.764 45.385H94.52v8.65h2.245c2.263 0 3.13-1.638 3.13-4.4 0-2.428-.72-4.25-3.13-4.25zM92.182 56.15V43.269h4.895c3.293 0 5.19 2.135 5.19 6.349 0 4.287-1.95 6.532-5.116 6.532h-4.969zM104.017 43.269h8.538v2.116h-6.183v3.073h5.19v2.136h-5.19v3.44h6.183v2.116h-8.538V43.269" fill="#CCC" mask="url(#b)"/></g></svg>